<?xml version="1.0" encoding="utf-8"?>
<!-- Generator: Adobe Illustrator 18.0.0, SVG Export Plug-In . SVG Version: 6.00 Build 0)  -->
<!DOCTYPE svg PUBLIC "-//W3C//DTD SVG 1.1//EN" "http://www.w3.org/Graphics/SVG/1.1/DTD/svg11.dtd">
<svg version="1.1" xmlns="http://www.w3.org/2000/svg" xmlns:xlink="http://www.w3.org/1999/xlink" x="0px" y="0px"
	 viewBox="0 0 1900 1250" style="enable-background:new 0 0 1900 1250;" xml:space="preserve">
<style type="text/css">
	.st0{fill:#F4EFEB;}
	.st1{display:none;}
	.st2{display:inline;fill:#353535;}
	.st3{fill:#54868A;}
	.st4{fill:#BB7E6F;}
	.st5{fill:#CEBC72;}
	.st6{fill:#353535;}
	.st7{fill:#7C7C7C;}
	.st8{fill:#999999;}
	.st9{fill:#7C4242;}
	.st10{fill:#822825;}
	.st11{opacity:0.25;fill:none;stroke:#8D8B8A;stroke-width:2;stroke-miterlimit:10;}
	.st12{opacity:0.2;fill:none;stroke:#8D8B8A;stroke-width:2;stroke-miterlimit:10;}
	.st13{fill:none;stroke:#8D8B8A;stroke-width:2;stroke-miterlimit:10;}
	.st14{opacity:0.95;fill:none;stroke:#8D8B8A;stroke-width:2;stroke-miterlimit:10;}
	.st15{opacity:0.9;fill:none;stroke:#8D8B8A;stroke-width:2;stroke-miterlimit:10;}
	.st16{opacity:0.85;fill:none;stroke:#8D8B8A;stroke-width:2;stroke-miterlimit:10;}
	.st17{opacity:0.8;fill:none;stroke:#8D8B8A;stroke-width:2;stroke-miterlimit:10;}
	.st18{opacity:0.75;fill:none;stroke:#8D8B8A;stroke-width:2;stroke-miterlimit:10;}
	.st19{opacity:0.7;fill:none;stroke:#8D8B8A;stroke-width:2;stroke-miterlimit:10;}
	.st20{opacity:0.65;fill:none;stroke:#8D8B8A;stroke-width:2;stroke-miterlimit:10;}
	.st21{opacity:0.6;fill:none;stroke:#8D8B8A;stroke-width:2;stroke-miterlimit:10;}
	.st22{opacity:0.55;fill:none;stroke:#8D8B8A;stroke-width:2;stroke-miterlimit:10;}
	.st23{opacity:0.5;fill:none;stroke:#8D8B8A;stroke-width:2;stroke-miterlimit:10;}
	.st24{opacity:0.45;fill:none;stroke:#8D8B8A;stroke-width:2;stroke-miterlimit:10;}
	.st25{opacity:0.4;fill:none;stroke:#8D8B8A;stroke-width:2;stroke-miterlimit:10;}
	.st26{opacity:0.35;}
	.st27{fill:#3F3F3F;}
	.st28{fill:#8D8B8A;}
	.st29{fill:none;stroke:#54868A;stroke-miterlimit:10;}
	.st30{fill:#47373F;}
	.st31{fill:#C5795F;}
	.st32{fill:#858B9E;}
	.st33{opacity:0.7;fill:#4C4C4C;}
	.st34{opacity:0.6;fill:#4C4C4C;}
	.st35{opacity:0.4;fill:#4C4C4C;}
</style>
<g id="bg">
	<rect class="st0" width="1900" height="1250"/>
</g>
<g id="Layer_6" class="st1">
	<rect x="-3.3" y="3.3" class="st2" width="1898" height="1246.7"/>
</g>
<g id="colours">
</g>
<g id="guides" class="st1">
</g>
<g id="shapes">
	<path class="st11" d="M1898,1235l-155.1-75.8l-0.7-0.6l-1.1,0.4c-26.1,9-130.8,42.8-150.3,49.1l-48.7-141.5l-0.4-1.3l-113.2-55
		l-31.4-91.3l-96.5,33.5l-53.1-25.8l-132.4,45.8l-46.9-136.2l-0.4-1.3l-57.9-28.1l-3,6l55.4,26.9l48.6,141.2l136.1-47.1l53.1,25.8
		l92.8-32.2l30.1,87.5l113.2,55l50.5,146.4l3.1-1c1.2-0.4,120.3-39.2,151.3-49.7l156.8,76.6V1235z"/>
	<path class="st12" d="M1898,1157.5l-132.4-55l-0.8-0.5l-1,0.5c-25.5,10.5-127.5,50.6-146.5,58l-57.3-137.8l-0.5-1.3l-116-47.9
		l-37-88.9l-93.9,39.2l-54.4-22.4l-128.9,53.6L1074,822.5l-0.5-1.3l-59.3-24.5l-2.5,6.2l56.8,23.4l55.9,134.4l1.3,3.1l132.5-55.1
		l54.4,22.4l90.3-37.7l35,84l0.5,1.3l116.1,47.9l58.1,139.6l1.2,3l3-1.2c1.2-0.5,117.3-46.4,147.5-58.8l133.7,55.5V1157.5z"/>
	<path class="st13" d="M672.6,556.2l-1.2-150.7l-144.8,1l-42.5-41.9l-98.8,0.8l-0.7-93.5l-90.3-89.1l-1-156.5l-3.3,0
		c-1.3,0-128.4,1-161.4,1.1L96.1-2h-9.6l38.4,35.1l1-0.4l1.4-0.7c27.7-0.1,138.7,1,159.3,1.3l0.9,151.1l0,1.3l90.3,89l0.7,97.5
		l102.8-0.9l42.5,41.9l140.8-0.9l1.1,146.7l46,45.7l4.7-4.8L672.6,556.2z"/>
	<path class="st13" d="M662.4,567.3l-10.1-146.4l-0.2-3.4l-143.6,9.9l-43.7-38.1l-1-0.9l-98.1,6.9l-6.3-91.5l-0.1-1.4l-95.1-83
		L253.6,63.9l-3.3,0.2C249,64.2,122.7,72.9,90,75L1.2,0H-8v0l92.2,78.4l2.3,0.9l2-0.1C116,77.3,226.5,72,247,71l10.4,150.3l0.2,1.4
		l95.1,83l6.7,96.8l102-7.1l43.7,38.1l1,0.9l139.7-9.6l10,144.5l0.1,1.4l48.5,42.5l4.4-5.1L662.4,567.3z"/>
	<path class="st13" d="M652.9,579.3l-19.5-147.6l-142.2,18.7l-46.8-35.8l-97,12.9l-11.9-90.2l-0.2-1.4l-99.6-76.3l-20-153.3
		l-3.3,0.4c-1.3,0.1-128.9,14-161.2,18.1L-5,83.6V92l53.2,38.9l2.3,0.8l2-0.2c27.3-3.5,136.7-15.6,157-17.9l19.5,148.2l0.3,1.4
		l99.6,76.3l12.6,95.4l100.9-13.4l46.8,35.8l138.3-18.2l18.8,142.4l0.2,1.4l50.8,39.1l4.1-5.3L652.9,579.3z"/>
	<path class="st13" d="M643.9,591.4l-28.6-146.1l-140.7,27.4l-49-32.8l-96,18.8l-17.7-90.6l-104.1-70l-29.5-151.7l-3.2,0.6
		c-1.3,0.2-127.8,21.7-159.8,27.9L-5,162.9v8.1l18.8,10.9l2.6-0.3c27-5.3,135.8-24.1,156-27.6l28.8,146.6l0.4,1.4l104.2,70
		l18.5,94.5l99.9-19.6l49,32.8L610,453.1l27.6,141l0.3,1.4l53.1,35.9l3.7-5.5L643.9,591.4z"/>
	<path class="st14" d="M635.7,604L598.1,460l-138.8,36.1l-50.9-29.8L313.8,491l-23-88l-0.3-1.4l-108.3-63.4l-38-146.4l-0.8-3.2
		l-5.7,0.7C136.6,189.7,40,212.3-5,223.2v6.9c40-9.7,123.9-29.3,141.1-33.4l38.8,144.6l1,1.4l108.6,63.4l24.5,93.1l98.5-25.7
		l50.9,29.8l135-35.1l36.3,139l0.4,1.4l55.2,32.5l3.4-5.8L635.7,604z"/>
	<path class="st15" d="M628.2,617.2l-46.4-141.5l-136.3,44.6l-51.4-25.9l-1.3-0.6L300,524.3l-28.8-87.8l-112-56.5l-48-146.9l-4.6,1
		C105.7,234.3,43,252.9-3,267.2v7c41-12.6,95.1-28.7,108.4-32.8L153,384.7l112.3,56.5l30.2,91.5l96.7-31.8l51.5,25.9l1.3,0.6
		l132.5-43.3l44.8,136.4l0.4,1.3l57.2,29l3-6L628.2,617.2z"/>
	<path class="st15" d="M621.6,630.8l-55.1-138.4l-133.3,52.9l-54.2-23.2l-90.9,36.3l-34.2-85.8l-115.2-49.5L83,282.5l-1.2-3
		l-4.1,1.1C77.1,280.8,37,295.4-2,310.1v7.1c34-12.6,68.8-25.5,79-29.3l56.2,140.2l115.5,49.5l35.7,89.4l94.6-37.7l54.2,23.2
		l129.6-51.5l53.1,133.4l0.5,1.3l58.9,25.4l2.7-6.1L621.6,630.8z"/>
	<path class="st15" d="M615.9,644.8l-62.1-131.7l-1.4-3l-129.7,61.1l-55.5-19.9l-88.5,41.8l-39.4-83.5l-118.1-42.3L56.8,330.4
		l-1.4-3l-4,1.3C50.9,329,26,339.5-2,352.2v7.3c24-10.7,45.6-20,53.1-23.3l64.1,135.2l0.8,1.2L234.3,515l41.1,87.1l92-43.5
		l55.5,19.9L549.2,519l61.3,129.9l0.6,1.2l60.3,21.7l2.3-6.3L615.9,644.8z"/>
	<path class="st15" d="M611.1,659.1l-71.7-130.5l-125.7,69l-55.4-16l-1.3-0.4l-85.7,47.2l-44.5-80.9l-120.5-34.9L32,377l-3.9,1.5
		c-0.4,0.2-13.1,6.4-30.1,15.2v7.5c14-7.1,25.4-12.8,30.3-15.3l73,132.2L222,553.1l46.5,84.4l89.2-49.1l56.7,16.4l122.3-67.1
		l69.9,127l61.5,18l1.9-6.4L611.1,659.1z"/>
	<path class="st15" d="M607.1,673.6l-79.7-125.8l-121.1,76.6l-57.6-12.8L266.1,664l-49.4-78L94.3,558.6L11.7,428l-3.8,1.7
		C7.7,429.8,3,431.7-2,435v7.8c4-2.5,8.4-4.5,10.5-5.8l81.1,127.5l122.6,27.4l51.6,81.3l86-54.5l57.6,12.8l117.8-74.5l76.9,121.3
		l0.7,1.2l62.5,14.1l1.5-6.5L607.1,673.6z"/>
	<polygon class="st16" points="604,688.4 516.7,567.8 400.5,651.8 342.3,642.5 263.1,699.9 208.9,625.1 84.1,605.3 -2,487.6 -2,499 
		79.5,610.4 80.8,611.5 204.9,631.3 261.5,709.3 343.9,649.5 402.2,658.8 515.2,577.1 599.4,693.5 600.2,694.6 663.5,704.8 
		664.6,698.2 	"/>
	<polygon class="st17" points="601.9,703.3 507.3,588.4 396.5,679.4 339.2,673.9 337.8,673.7 262.3,735.9 204.5,665.7 203.6,664.6 
		77.8,652.5 -2,556.6 -2,567.1 73.5,657.8 74.9,658.9 200,671 261.3,745.3 339.9,680.6 398.6,686.3 506.4,597.8 597.6,708.7 
		598.5,709.7 662.3,716 662.9,709.4 	"/>
	<polygon class="st17" points="600.7,718.4 501.4,611.9 499.2,609.5 394.2,707.2 336.7,705.2 335.3,705.2 263.8,771.9 201.7,705.4 
		200.8,704.4 74.4,700 -2,619 -2,628.8 70.5,705.6 72,706.6 197.5,711 261,778.9 263.4,781.4 337.8,711.9 396.7,713.9 498.8,618.9 
		596.7,724 597.7,725 661.7,727.3 662,720.6 	"/>
	<polygon class="st17" points="661.8,731.9 600.4,733.5 494.8,633.4 492.4,631.1 393.6,735 336.1,736.7 334.7,736.7 267.4,807.8 
		200.4,744.2 74,747.7 -2,676.4 -2,685.6 70.4,753.4 71.9,754.4 197.6,751 267.6,817.2 337.6,743.3 395.2,741.7 396.6,741.6 
		492.6,640.5 597.8,740.2 661.9,738.6 	"/>
	<polygon class="st17" points="662.2,743.2 601.1,748.6 489.5,655.2 486.9,653 394.8,762.9 336.1,768.2 273.4,843.3 202.5,784.1 
		76.6,795.2 -2,730.2 -2,738.9 74.4,802.1 199.9,790.9 273.9,852.7 339.3,774.6 398.1,769.3 487.7,662.4 598.9,755.4 662.8,749.9 	
		"/>
	<polygon class="st17" points="663.3,754.5 602.7,763.6 485.5,677.3 482.8,675.3 397.7,790.7 339.4,799.6 281.4,878.4 207.1,823.6 
		82.1,842.5 -2,781.3 -2,789.6 79.2,848.7 80.8,849.6 205.1,830.7 282.7,887.7 343.1,805.8 401.4,796.9 484.2,684.6 600.9,770.6 
		664.3,761.1 	"/>
	<polygon class="st17" points="665.2,765.6 605.2,778.4 482.9,699.5 480.1,697.7 402.3,818.2 346,830.4 344.7,830.7 291.7,912.9 
		214.1,862.9 90.5,889.4 -2,830.3 -2,838.3 88,895.8 89.7,896.5 212.5,870 293.5,922.2 348.7,836.6 405,824.4 406.4,824.1 
		482.1,707 602.7,784.8 603.9,785.6 666.6,772.1 	"/>
	<polygon class="st18" points="667.7,776.6 608.6,793.2 481.7,722 478.7,720.3 408.6,845.4 351.8,861.4 304,946.8 224.7,902.3 
		223.5,901.6 101.7,935.6 -2,878 -2,885.6 99.7,942.1 101.4,942.8 222.4,908.8 306.5,955.9 356.2,867.1 413,851.1 481.3,729.4 
		606.5,799.7 607.8,800.4 669.5,783.1 	"/>
	<polygon class="st19" points="670.9,787.5 613,807.6 478.9,743 416.5,872.1 360.9,891.6 318.5,979.7 236.5,940.3 235.3,939.7 
		115.9,981.1 -2,924.8 -2,932.2 114.2,987.8 116,988.3 234.6,946.9 321.5,988.7 365.6,897 421.3,877.5 482,751.9 611.3,814.2 
		612.6,814.8 673.1,793.8 	"/>
	<polygon class="st19" points="674.8,798.1 618.2,821.8 480.3,765.5 426.1,898.3 373.1,920.7 371.8,921.2 334.9,1011.8 249.4,977 
		132.8,1025.7 -2,971.1 -2,978.3 131.5,1032.4 133.3,1032.9 249.1,984.2 338.5,1020.5 376.9,926.3 429.9,903.9 431.2,903.4 
		483.9,774.2 618.2,829 677.4,804.2 	"/>
	<path class="st19" d="M679.3,808.4l-55,27.2L486.4,789l-3.2-1.1l-45.9,135.9l-52.8,26.2l-31.2,92.7l-87.5-29.5L153.4,1069L7,1019.6
		l-2.1,3.1c-0.1,0.3-2.8,6.5-6.8,16.2v19.7c5-14.2,10.2-25.4,12-30.6l143.4,48.2l112.6-55.7l91.3,30.7l32.5-96.4l52.8-26.2
		l44.7-132.2l136.1,45.9l1.3,0.4l57.5-28.4L679.3,808.4z"/>
	<path class="st19" d="M684.5,818.5L631.2,849l-143.8-38.8L450,948.7L399,978.1l-25.4,94.5l-89.2-24l-108.7,62.6l-149.2-40.3
		l-1.9,3.1c-0.2,0.8-14.5,45.7-26.5,87.9v24.1c12-40.9,28.1-93.7,32-106.9l146.1,39.3l109-62.6l93,25l26.5-98.3l51.1-29.4
		l36.4-134.6l138.6,37.4l1.3,0.3l55.6-31.9L684.5,818.5z"/>
	<path class="st19" d="M690.2,828.2L638.9,862l-145.9-29.8l-28.8,140.5l-48,31.7l-1.2,0.8l-19.5,95.9l-90.5-18.4l-104.7,69.2
		l-151.4-31l-0.7,4.2c-0.2,1-17.7,79-28.2,127H27c9.3-43,23.8-107.4,27.2-122.4l146.4,29.4l1.4,0l104.7-69.3l94.3,19.2l20.3-99.7
		l48-31.8l1.2-0.8l28-136.7L639,868.8l1.4,0.3l53.5-35.3L690.2,828.2z"/>
	<path class="st19" d="M696.6,837.5l-49.1,36.9l-144.2-20.3l-3.3-0.4l-20,142l-45.9,34.7l-1.1,0.8l-13.5,96.9l-91.5-12.8
		l-100.2,75.6L78,1169.7l-3.2-0.4l-0.5,4.2c-0.1,0.7-6.2,38.5-12.5,78.5h6.8c5.2-33,10.2-64.4,11.8-74.2l147.9,20.4l1.4-0.1
		l100.2-75.7l95.3,13.3l14.1-100.8l45.9-34.7l1.1-0.8l19.5-138.1l142.2,20l1.4,0.2l51.3-38.6L696.6,837.5z"/>
	<path class="st19" d="M703.5,846.4l-46.7,39.9L511.6,875l-3.3-0.2l-11.2,142.9l-43.7,37.5l-1.1,0.9l-7.5,97.5l-92.1-7.1l-95.3,81.6
		l-150.8-11.8l-3.3-0.2l-0.3,4.2c0,0.4-1.3,13.7-3,31.7h6.7c1.2-13,2.2-23.1,2.6-27.8l148.9,11.2l1.4-0.1l95.3-81.7l95.9,7.4
		l7.8-101.5l43.7-37.5l1.1-0.9l10.9-139.1l143.2,11.1l1.4,0.1l48.8-41.7L703.5,846.4z"/>
	<polygon class="st20" points="710.9,854.9 666.8,897.6 517.9,895.2 515.6,1038.6 473.3,1079.7 471.8,1177.5 380.9,1176.1 
		379.5,1177.1 303.2,1252 312.8,1252 382.2,1183.8 478.4,1184.8 479.9,1082.8 522.2,1041.6 524.5,902.1 668.1,904.3 669.4,904.3 
		715.6,859.7 	"/>
	<polygon class="st21" points="718.9,862.9 677.5,908.3 528.7,915.1 535.3,1058.4 495.6,1101.9 500.2,1199.7 409.4,1203.9 408,1205 
		366,1252 375.1,1252 411.1,1211.5 507.2,1206.5 502.4,1104.6 542.1,1061 535.7,921.6 679.2,914.9 680.6,914.8 723.8,867.5 	"/>
	<polygon class="st21" points="727.3,870.5 688.8,918.2 544.1,933.9 540.7,934.3 556.2,1076.9 519.3,1122.8 529.9,1220.1 
		439.5,1229.9 438.1,1231.1 422.1,1252 430.7,1252 441.6,1237.4 537.3,1226.5 526.2,1125.1 563.1,1079 548.1,940.3 690.9,924.8 
		692.3,924.6 732.5,874.7 	"/>
	<polygon class="st21" points="736.2,877.4 700.7,927.5 557.2,952.1 554,952.7 578.2,1094 545,1141 544.2,1142.2 560.8,1239.5 
		494.4,1252 533.6,1252 568.5,1245 551.2,1144.3 584.4,1097 585.2,1095.7 561.7,958.2 703.2,933.9 704.6,933.6 741.7,881.3 	"/>
	<polygon class="st21" points="745.5,883.8 713.2,936 568.3,970.2 601.2,1109.8 571,1158.8 570.2,1160.9 591.6,1252 598.4,1252 
		577.4,1162.1 607.6,1112.6 608.3,1111.2 576.3,975.3 717.4,941.9 751.2,887.4 	"/>
	<polygon class="st21" points="597.3,1177.1 619.7,1252 626.7,1252 604.5,1177.8 631.7,1126.5 632.3,1125.1 591.9,991.4 
		729.4,949.8 730.7,949.3 761.1,892.8 755.2,889.6 726.2,943.7 586.8,985.9 583.6,986.8 625.1,1124.6 	"/>
	<polygon class="st21" points="765.2,894.8 739.6,950.6 600,1002.5 649.9,1136.9 625.4,1191.5 647.6,1252 654.7,1252 632.6,1191.8 
		657.1,1137.6 608.6,1006.7 744.5,956 771.3,897.7 	"/>
	<polygon class="st21" points="654.3,1204.2 675.1,1252 682.4,1252 661.5,1204 682.2,1149.7 682.6,1148.2 626.1,1020.6 757.4,962.3 
		758.7,961.7 781.8,901.8 775.6,899.4 753.5,956.7 617.3,1017 675.4,1148.6 	"/>
	<polygon class="st22" points="714.1,1224 730.4,1252 738.2,1252 721.3,1222.9 735.5,1165.2 663.6,1045.4 786.7,971.3 787.9,970.5 
		803.5,908.3 797,906.6 782.1,966.1 654.4,1042.9 728.3,1166.3 	"/>
	<polygon class="st21" points="683.9,1215 702.6,1252 710.2,1252 691.1,1214.3 708.8,1157.6 644.5,1033.7 771.9,967.2 773.2,966.6 
		792.5,905.4 786.2,903.4 767.6,961.8 638.4,1029 635.4,1030.6 701.6,1158.3 	"/>
	<polygon class="st23" points="744.8,1231.1 758.6,1252 766.7,1252 751.9,1229.6 762.6,1171.1 683.4,1056 801.7,974.4 802.9,973.5 
		814.5,910.4 808,909.2 796.8,969.5 674.1,1054 755.5,1172.6 	"/>
	<polygon class="st23" points="807.3,1239.5 817.5,1252 826.5,1252 814.1,1237.1 817.6,1177.8 724.8,1073.4 833.2,976.8 837,912.8 
		830.3,912.4 826.7,973.6 717.9,1070.3 715.4,1072.6 810.8,1180.2 	"/>
	<polygon class="st23" points="775.9,1236.3 787.5,1252 796,1252 782.9,1234.3 790,1175.3 703.8,1065.3 816.9,976.5 818,975.6 
		825.7,912 819.1,911.1 811.7,972 697.1,1061.9 694.5,1064 783,1177.3 	"/>
	<polygon class="st23" points="838.6,1179.9 838.8,1239.9 849,1251 858.5,1251 845.5,1237.1 845.3,1177.6 746.2,1079.1 847.5,977 
		848.5,977.1 848.3,914 841.6,914 841.8,974.3 736.8,1079.4 	"/>
	<polygon class="st23" points="870.4,1240.2 882.7,1252 892.8,1252 876.8,1237 873,1177.7 768.1,1085.5 862.8,977.4 863.7,976.3 
		859.6,912.3 852.9,912.7 856.9,973.9 760.9,1083.4 758.7,1085.9 866.5,1180.9 	"/>
	<polygon class="st23" points="894.3,1178.2 901.6,1235.3 901.8,1237.6 919.2,1252 930.1,1252 908.1,1234 900.8,1176.5 
		900.6,1174.8 790.2,1089.4 878.1,975.7 878.9,974.6 870.8,910.9 864.2,911.8 871.9,972.6 780.8,1090.5 	"/>
	<polygon class="st23" points="921.9,1174.2 933,1233.1 959.5,1252 971.4,1252 939.1,1229.1 928,1170.7 812.5,1092.2 893.2,973.2 
		893.9,972 881.9,909 875.3,910.2 886.9,970.4 803.2,1093.7 	"/>
	<polygon class="st23" points="963.6,1224.3 963.9,1226.6 1005.2,1252 1018.3,1252 969.7,1222.3 955.4,1166.1 955,1164.5 
		834.9,1093.3 908.1,969.6 908.8,968.4 892.9,906.3 886.4,907.9 901.7,967.3 827.5,1092.7 825.8,1095.5 949.2,1168.6 	"/>
	<polygon class="st23" points="994.3,1218.3 1058.5,1252 1073.2,1252 999.8,1213.6 981.7,1157 857.4,1093.3 923.4,964 903.7,903 
		897.3,905 916.2,963.4 849.9,1093 848.4,1096 976.1,1161.7 	"/>
	<polygon class="st24" points="1002.5,1152.2 1024.1,1207 1113.9,1247 1112.2,1252 1119.5,1252 1122.7,1243.5 1029.3,1202.5 
		1007.7,1147.5 879.8,1091.7 937.2,959.9 937.7,958.6 914.2,898.9 908,901.4 930.5,958.4 871,1095 	"/>
	<polygon class="st25" points="1053.3,1195 1145.3,1229.3 1137.4,1252 1144.5,1252 1153.8,1225.3 1058.2,1190.2 1033.2,1136.6 
		902.1,1088.8 951.2,953.7 951.6,952.4 924.5,894.3 918.5,897.1 944.4,952.7 894.7,1089.5 893.5,1092.7 1028.4,1141.6 	"/>
	<polygon class="st25" points="1053.5,1129.4 1081.6,1181.2 1175.5,1209.8 1163.4,1252 1170.3,1252 1183.8,1205.3 1086.2,1176 
		1058,1124.1 924.2,1084.5 964.8,946.7 965.2,945.3 934.5,889 928.7,892.2 958,946.1 915.9,1088.9 	"/>
	<polygon class="st25" points="1258.2,1139.4 1249,1229.8 1248.9,1232.2 1264.2,1252 1272.8,1252 1255.8,1230.1 1265.5,1133.9 
		1164.2,1123.5 1127,1077.7 988.2,1063.6 1002.7,920.7 1002.8,919.3 962.2,869.6 957.1,873.8 995.9,921.3 980.8,1069.5 1123.6,1084 
		1160.8,1129.6 	"/>
	<polygon class="st25" points="1077.8,1115.8 1109.1,1165.6 1204.5,1188.4 1190.2,1252 1197,1252 1212.5,1183.3 1113.2,1160.2 
		1081.9,1110.1 945.9,1078.9 977.9,938.8 978.3,937.4 944.2,883.1 938.5,886.6 971.1,938.6 937.9,1083.8 	"/>
	<polygon class="st25" points="1101.2,1100.6 1135.5,1148.4 1232.1,1165.2 1218,1252 1224.8,1252 1239.7,1159.7 1139.3,1142.8 
		1105,1094.7 967.3,1071.9 990.6,930.1 990.8,928.7 953.4,876.6 948,880.5 983.8,930.4 959.6,1077.3 	"/>
	<polygon class="st25" points="1279.1,1206.2 1320.5,1252 1329.6,1252 1285.9,1203.7 1289.6,1107.1 1187.9,1102.9 1148.9,1060.6 
		1148,1059.5 1008.5,1054.1 1014.2,909.1 970.6,862 965.7,866.5 1007.4,911.6 1001.7,1057.1 1001.6,1060.5 1144.9,1066 1184,1108.2 
		1184.9,1109.2 1282.7,1113.5 	"/>
	<polygon class="st25" points="1305.5,1085.1 1307.6,1178.4 1383.6,1252 1393.3,1252 1314.2,1175.5 1312.1,1082.1 1312.1,1078.5 
		1210.3,1080.8 1167.7,1040.1 1028.2,1043.3 1024.9,898.3 978.5,853.9 973.9,858.8 1018.3,901.1 1021.6,1046.7 1021.7,1050.1 
		1165.1,1046.7 1207.7,1087.4 	"/>
	<polygon class="st25" points="1334.4,1147.9 1430.4,1229.8 1432.2,1252 1438.9,1252 1436.8,1226.5 1340.9,1145 1332.7,1048.9 
		1231.3,1057.5 1186.2,1019.5 1047.2,1031.3 1034.9,886.8 985.9,845.4 981.6,850.5 1028.5,890.1 1041.1,1038.5 1184.1,1026.3 
		1229.1,1064.3 1326.6,1055.9 	"/>
	<polygon class="st25" points="1468.8,1252 1475.5,1252 1466.5,1190.3 1466.3,1188.4 1365.5,1113.3 1352,1021.3 1351.4,1017.9 
		1250.8,1032.8 1203.5,997.7 1065.4,1018.1 1044.5,876 1044.2,874.6 992.7,836.4 988.8,841.8 1038,878.4 1059.3,1022.4 
		1059.8,1025.7 1201.7,1004.7 1249,1039.8 1345.8,1025.4 1359.1,1115.4 1359.3,1116.8 1460.1,1192.6 	"/>
	<polygon class="st25" points="1508.1,1252 1514.9,1252 1493.5,1149.5 1388.2,1080.6 1368.3,986.2 1268.7,1007.2 1219.3,975 
		1082.8,1003.9 1052.8,862 999,827 995.4,832.6 1046.8,866.1 1077,1008.5 1077.6,1011.8 1218,982.1 1267.4,1014.2 1363.1,993.8 
		1382.2,1084.2 1487.5,1153.6 	"/>
	<g class="st26">
		<path class="st13" d="M1596.1,1252c38.9-10,95.3-24.5,115.3-29.9l52.9,29.9h13.6l-65.6-38.1l-1.3,0.9
			c-23.3,6.4-108.1,28.2-141.8,37.2H1596.1z"/>
		<polygon class="st13" points="1550.7,1252 1557.6,1252 1518.5,1109.9 1518.1,1108.1 1408.8,1046 1384,956.3 1383.1,953.1 
			1285,980.3 1233.8,951.3 1099.3,988.6 1060.9,850.2 1060.6,848.9 1004.7,817.2 1001.4,823 1054.9,853.3 1093.7,993.6 
			1094.6,996.8 1232.9,958.5 1284.1,987.4 1378.4,961.2 1402.7,1048.9 1403.1,1050.2 1512.4,1113 		"/>
	</g>
</g>
<g id="text">
	<g>
		<path class="st3" d="M759.4,648.4c0,0.5,0,1.1-0.1,1.8s-0.3,1.3-0.6,1.8c-0.3,0.6-0.8,1.1-1.4,1.4c-0.6,0.4-1.5,0.6-2.7,0.6
			c-1.3,0-2.3-0.3-3.1-1c-0.8-0.7-1.3-1.5-1.5-2.6l1.7-0.3c0.4,1.6,1.4,2.4,3,2.4c0.6,0,1.1-0.1,1.5-0.3c0.4-0.2,0.7-0.5,1-0.8
			c0.2-0.3,0.4-0.7,0.5-1.2c0.1-0.5,0.2-1,0.2-1.5v-12.9h1.7V648.4z"/>
		<path class="st3" d="M773.1,644.8c0-1.4,0.2-2.6,0.7-3.7c0.5-1.1,1.1-2.1,1.9-2.9c0.8-0.8,1.8-1.5,2.9-1.9
			c1.1-0.5,2.4-0.7,3.7-0.7c1.4,0,2.6,0.2,3.7,0.7c1.1,0.5,2.1,1.1,2.9,1.9c0.8,0.8,1.4,1.8,1.9,2.9c0.4,1.1,0.7,2.4,0.7,3.7
			c0,1.3-0.2,2.6-0.7,3.7c-0.5,1.1-1.1,2.1-1.9,3c-0.8,0.8-1.8,1.5-2.9,1.9s-2.4,0.7-3.7,0.7c-1.3,0-2.6-0.2-3.7-0.7
			s-2.1-1.1-2.9-1.9s-1.4-1.8-1.9-3S773.1,646.1,773.1,644.8z M774.7,644.8c0,1.1,0.2,2.1,0.5,3.1c0.3,0.9,0.8,1.8,1.5,2.5
			c0.6,0.7,1.4,1.2,2.4,1.7c0.9,0.4,2,0.6,3.1,0.6c1.2,0,2.2-0.2,3.1-0.6c0.9-0.4,1.7-1,2.4-1.7c0.6-0.7,1.1-1.5,1.5-2.5
			c0.3-1,0.5-2,0.5-3.1c0-1.1-0.2-2.1-0.5-3.1c-0.4-1-0.9-1.8-1.5-2.5c-0.7-0.7-1.4-1.2-2.4-1.7c-0.9-0.4-2-0.6-3.1-0.6
			c-1.1,0-2.2,0.2-3.1,0.6s-1.7,1-2.4,1.7c-0.7,0.7-1.2,1.5-1.5,2.5C774.9,642.7,774.7,643.7,774.7,644.8z"/>
		<path class="st3" d="M810.5,635.9h1.7l7.5,17.7h-1.8l-1.9-4.7h-9.4l-2,4.7h-1.7L810.5,635.9z M811.3,637.7l-4.1,9.7h8.1
			L811.3,637.7z"/>
		<path class="st3" d="M832.2,635.9h2.1l10.8,15.5h0v-15.5h1.7v17.7h-2.1l-10.8-15.5h0v15.5h-1.7V635.9z"/>
		<path class="st3" d="M861.6,635.9h2.1l10.8,15.5h0v-15.5h1.7v17.7h-2.1l-10.8-15.5h0v15.5h-1.7V635.9z"/>
		<path class="st27" d="M896.5,635.9h1.7l7.5,17.7h-1.8l-1.9-4.7h-9.4l-2,4.7h-1.7L896.5,635.9z M897.3,637.7l-4.1,9.7h8.1
			L897.3,637.7z"/>
		<path class="st3" d="M752.2,660.9h4.7c0.2,0,0.5,0,1,0c0.4,0,0.8,0.1,1.3,0.2c0.5,0.1,0.9,0.2,1.4,0.4c0.5,0.2,0.9,0.5,1.3,0.8
			c0.4,0.4,0.7,0.8,1,1.3c0.2,0.5,0.4,1.2,0.4,2c0,0.8-0.1,1.5-0.4,2.1c-0.3,0.6-0.7,1-1.1,1.3c-0.4,0.3-0.9,0.6-1.5,0.8
			s-1,0.3-1.5,0.3l5.2,8.5h-1.9l-5-8.4h-3.1v8.4h-1.7V660.9z M753.8,668.7h3.5c0.9,0,1.6-0.1,2.1-0.3c0.5-0.2,1-0.5,1.3-0.8
			s0.5-0.7,0.6-1c0.1-0.4,0.2-0.7,0.2-1s-0.1-0.6-0.2-1c-0.1-0.4-0.3-0.7-0.6-1c-0.3-0.3-0.7-0.6-1.3-0.8c-0.5-0.2-1.2-0.3-2.1-0.3
			h-3.5V668.7z"/>
		<path class="st3" d="M789.6,671.9c0,0.9-0.1,1.9-0.3,2.7c-0.2,0.9-0.6,1.6-1.1,2.3c-0.5,0.7-1.2,1.2-2,1.6c-0.8,0.4-1.8,0.6-3,0.6
			s-2.2-0.2-3-0.6c-0.8-0.4-1.5-0.9-2-1.6c-0.5-0.7-0.9-1.4-1.1-2.3c-0.2-0.9-0.3-1.8-0.3-2.7v-10.9h1.7v10.5c0,0.6,0.1,1.3,0.2,2
			s0.3,1.4,0.7,2c0.3,0.6,0.8,1.1,1.5,1.5c0.6,0.4,1.5,0.6,2.5,0.6s1.9-0.2,2.5-0.6c0.6-0.4,1.1-0.9,1.5-1.5c0.3-0.6,0.6-1.3,0.7-2
			s0.2-1.4,0.2-2v-10.5h1.7V671.9z"/>
		<path class="st3" d="M809.5,660.9h1.7l7.5,17.7h-1.8l-1.9-4.7h-9.4l-2,4.7h-1.7L809.5,660.9z M810.3,662.7l-4.1,9.7h8.1
			L810.3,662.7z"/>
		<path class="st3" d="M831.7,675.4c0.4,0.8,1,1.3,1.7,1.7c0.7,0.4,1.5,0.5,2.4,0.5c0.5,0,1.1-0.1,1.5-0.2c0.5-0.2,0.9-0.4,1.3-0.7
			s0.6-0.7,0.8-1.1c0.2-0.4,0.3-0.9,0.3-1.4c0-0.6-0.1-1.1-0.4-1.5c-0.3-0.4-0.6-0.7-1-1s-0.9-0.5-1.5-0.7c-0.5-0.2-1.1-0.4-1.7-0.5
			c-0.6-0.2-1.1-0.4-1.7-0.6c-0.5-0.2-1-0.5-1.5-0.9s-0.8-0.8-1-1.4c-0.3-0.6-0.4-1.3-0.4-2.1c0-0.8,0.2-1.5,0.5-2.1
			c0.3-0.6,0.7-1.1,1.2-1.5c0.5-0.4,1.1-0.7,1.8-0.9c0.7-0.2,1.4-0.3,2.1-0.3c1,0,1.9,0.2,2.7,0.5c0.8,0.3,1.5,0.9,2.1,1.7l-1.4,1
			c-0.4-0.6-0.9-1-1.5-1.3c-0.6-0.3-1.2-0.4-2-0.4c-0.5,0-1,0.1-1.5,0.2c-0.5,0.1-0.9,0.4-1.3,0.6c-0.4,0.3-0.6,0.6-0.9,1
			c-0.2,0.4-0.3,0.9-0.3,1.5c0,0.9,0.2,1.6,0.7,2c0.5,0.5,1,0.9,1.7,1.1c0.7,0.3,1.4,0.5,2.2,0.7c0.8,0.2,1.5,0.5,2.2,0.8
			c0.7,0.4,1.2,0.8,1.7,1.5c0.4,0.6,0.7,1.5,0.7,2.6c0,0.8-0.2,1.5-0.5,2.1c-0.3,0.6-0.7,1.1-1.2,1.6c-0.5,0.4-1.1,0.7-1.8,1
			c-0.7,0.2-1.4,0.3-2.1,0.3c-1.2,0-2.2-0.2-3.2-0.6s-1.8-1.1-2.5-2.1L831.7,675.4z"/>
		<path class="st3" d="M854,669.8c0-1.4,0.2-2.6,0.7-3.7c0.5-1.1,1.1-2.1,1.9-2.9c0.8-0.8,1.8-1.5,2.9-1.9c1.1-0.5,2.4-0.7,3.7-0.7
			c1.4,0,2.6,0.2,3.7,0.7c1.1,0.5,2.1,1.1,2.9,1.9c0.8,0.8,1.4,1.8,1.9,2.9c0.4,1.1,0.7,2.4,0.7,3.7c0,1.3-0.2,2.6-0.7,3.7
			c-0.5,1.1-1.1,2.1-1.9,3c-0.8,0.8-1.8,1.5-2.9,1.9s-2.4,0.7-3.7,0.7c-1.3,0-2.6-0.2-3.7-0.7s-2.1-1.1-2.9-1.9s-1.4-1.8-1.9-3
			S854,671.1,854,669.8z M855.6,669.8c0,1.1,0.2,2.1,0.5,3.1c0.3,0.9,0.8,1.8,1.5,2.5c0.6,0.7,1.4,1.2,2.4,1.7
			c0.9,0.4,2,0.6,3.1,0.6c1.2,0,2.2-0.2,3.1-0.6c0.9-0.4,1.7-1,2.4-1.7c0.6-0.7,1.1-1.5,1.5-2.5c0.3-1,0.5-2,0.5-3.1
			c0-1.1-0.2-2.1-0.5-3.1c-0.4-1-0.9-1.8-1.5-2.5c-0.7-0.7-1.4-1.2-2.4-1.7c-0.9-0.4-2-0.6-3.1-0.6c-1.1,0-2.2,0.2-3.1,0.6
			s-1.7,1-2.4,1.7c-0.7,0.7-1.2,1.5-1.5,2.5C855.8,667.7,855.6,668.7,855.6,669.8z"/>
		<path class="st3" d="M886,660.9h1.7v16.2h8.2v1.5H886V660.9z"/>
		<path class="st28" d="M751.9,710.9h5.5c1.5,0,2.8,0.2,3.9,0.6c1.1,0.4,2,0.9,2.7,1.4c0.7,0.6,1.3,1.2,1.7,1.9
			c0.4,0.7,0.7,1.4,0.9,2c0.2,0.6,0.3,1.2,0.4,1.8c0,0.5,0.1,0.9,0.1,1.1s0,0.6-0.1,1.1s-0.2,1.1-0.4,1.8c-0.2,0.6-0.5,1.3-0.9,2
			c-0.4,0.7-1,1.4-1.7,1.9c-0.7,0.6-1.6,1.1-2.7,1.4c-1.1,0.4-2.4,0.6-3.9,0.6h-5.5V710.9z M753.6,727.1h3.4c1.2,0,2.3-0.1,3.3-0.4
			c1-0.3,1.9-0.7,2.6-1.3c0.8-0.6,1.3-1.4,1.8-2.3c0.4-0.9,0.6-2,0.6-3.3s-0.2-2.4-0.6-3.3c-0.4-0.9-1-1.7-1.8-2.3s-1.6-1-2.6-1.3
			c-1-0.3-2.1-0.4-3.3-0.4h-3.4V727.1z"/>
		<path class="st28" d="M780.7,710.9h10.8v1.5h-9.2v6.3h8.6v1.5h-8.6v6.9h9.6v1.5h-11.2V710.9z"/>
		<path class="st28" d="M806,725.4c0.4,0.8,1,1.3,1.7,1.7c0.7,0.4,1.5,0.5,2.4,0.5c0.5,0,1.1-0.1,1.5-0.2c0.5-0.2,0.9-0.4,1.3-0.7
			s0.6-0.7,0.8-1.1c0.2-0.4,0.3-0.9,0.3-1.4c0-0.6-0.1-1.1-0.4-1.5c-0.3-0.4-0.6-0.7-1-1s-0.9-0.5-1.5-0.7c-0.5-0.2-1.1-0.4-1.7-0.5
			c-0.6-0.2-1.1-0.4-1.7-0.6c-0.5-0.2-1-0.5-1.5-0.9s-0.8-0.8-1-1.4c-0.3-0.6-0.4-1.3-0.4-2.1c0-0.8,0.2-1.5,0.5-2.1
			c0.3-0.6,0.7-1.1,1.2-1.5c0.5-0.4,1.1-0.7,1.8-0.9c0.7-0.2,1.4-0.3,2.1-0.3c1,0,1.9,0.2,2.7,0.5c0.8,0.3,1.5,0.9,2.1,1.7l-1.4,1
			c-0.4-0.6-0.9-1-1.5-1.3c-0.6-0.3-1.2-0.4-2-0.4c-0.5,0-1,0.1-1.5,0.2c-0.5,0.1-0.9,0.4-1.3,0.6c-0.4,0.3-0.6,0.6-0.9,1
			c-0.2,0.4-0.3,0.9-0.3,1.5c0,0.9,0.2,1.6,0.7,2c0.5,0.5,1,0.9,1.7,1.1c0.7,0.3,1.4,0.5,2.2,0.7c0.8,0.2,1.5,0.5,2.2,0.8
			c0.7,0.4,1.2,0.8,1.7,1.5c0.4,0.6,0.7,1.5,0.7,2.6c0,0.8-0.2,1.5-0.5,2.1c-0.3,0.6-0.7,1.1-1.2,1.6c-0.5,0.4-1.1,0.7-1.8,1
			c-0.7,0.2-1.4,0.3-2.1,0.3c-1.2,0-2.2-0.2-3.2-0.6s-1.8-1.1-2.5-2.1L806,725.4z"/>
		<path class="st28" d="M829.4,710.9h1.7v17.7h-1.7V710.9z"/>
		<path class="st28" d="M860.5,727.5c-1,0.6-2.1,1-3.2,1.2s-2.2,0.4-3.4,0.4c-1.3,0-2.6-0.2-3.7-0.7s-2.1-1.1-2.9-1.9
			s-1.4-1.8-1.9-3s-0.7-2.4-0.7-3.7c0-1.4,0.2-2.6,0.7-3.7c0.5-1.1,1.1-2.1,1.9-2.9c0.8-0.8,1.8-1.5,2.9-1.9
			c1.1-0.5,2.4-0.7,3.7-0.7c2.6,0,4.8,0.8,6.4,2.4l-1.2,1.2c-0.3-0.3-0.6-0.6-1-0.9c-0.4-0.3-0.8-0.5-1.3-0.7
			c-0.5-0.2-0.9-0.3-1.4-0.5s-1-0.2-1.5-0.2c-1.1,0-2.2,0.2-3.1,0.6s-1.7,1-2.4,1.7c-0.7,0.7-1.2,1.5-1.5,2.5c-0.4,1-0.5,2-0.5,3.1
			c0,1.1,0.2,2.1,0.5,3.1c0.3,0.9,0.8,1.8,1.5,2.5c0.6,0.7,1.4,1.2,2.4,1.7c0.9,0.4,2,0.6,3.1,0.6c1,0,1.8-0.1,2.7-0.2
			c0.8-0.2,1.6-0.4,2.3-0.8v-6h-4.2v-1.5h5.9V727.5z"/>
		<path class="st28" d="M875.4,710.9h2.1l10.8,15.5h0v-15.5h1.7v17.7h-2.1l-10.8-15.5h0v15.5h-1.7V710.9z"/>
		<path class="st28" d="M904.8,710.9h10.8v1.5h-9.2v6.3h8.6v1.5h-8.6v6.9h9.6v1.5h-11.2V710.9z"/>
		<path class="st28" d="M929.6,710.9h4.7c0.2,0,0.5,0,1,0c0.4,0,0.8,0.1,1.3,0.2c0.5,0.1,0.9,0.2,1.4,0.4c0.5,0.2,0.9,0.5,1.3,0.8
			c0.4,0.4,0.7,0.8,1,1.3c0.2,0.5,0.4,1.2,0.4,2c0,0.8-0.1,1.5-0.4,2.1c-0.3,0.6-0.7,1-1.1,1.3c-0.4,0.3-0.9,0.6-1.5,0.8
			s-1,0.3-1.5,0.3l5.2,8.5h-1.9l-5-8.4h-3.1v8.4h-1.7V710.9z M931.3,718.7h3.5c0.9,0,1.6-0.1,2.1-0.3c0.5-0.2,1-0.5,1.3-0.8
			s0.5-0.7,0.6-1c0.1-0.4,0.2-0.7,0.2-1s-0.1-0.6-0.2-1c-0.1-0.4-0.3-0.7-0.6-1c-0.3-0.3-0.7-0.6-1.3-0.8c-0.5-0.2-1.2-0.3-2.1-0.3
			h-3.5V718.7z"/>
		<path class="st28" d="M959.9,710l1.3,0.5l-7.6,19l-1.3-0.5L959.9,710z"/>
		<path class="st28" d="M979.1,710.9h1.7l7.5,17.7h-1.8l-1.9-4.7h-9.4l-2,4.7h-1.7L979.1,710.9z M979.9,712.7l-4.1,9.7h8.1
			L979.9,712.7z"/>
		<path class="st28" d="M1000.8,710.9h4.7c0.2,0,0.5,0,1,0c0.4,0,0.8,0.1,1.3,0.2c0.5,0.1,0.9,0.2,1.4,0.4c0.5,0.2,0.9,0.5,1.3,0.8
			c0.4,0.4,0.7,0.8,1,1.3c0.2,0.5,0.4,1.2,0.4,2c0,0.8-0.1,1.5-0.4,2.1c-0.3,0.6-0.7,1-1.1,1.3c-0.4,0.3-0.9,0.6-1.5,0.8
			s-1,0.3-1.5,0.3l5.2,8.5h-1.9l-5-8.4h-3.1v8.4h-1.7V710.9z M1002.5,718.7h3.5c0.9,0,1.6-0.1,2.1-0.3c0.5-0.2,1-0.5,1.3-0.8
			s0.5-0.7,0.6-1c0.1-0.4,0.2-0.7,0.2-1s-0.1-0.6-0.2-1c-0.1-0.4-0.3-0.7-0.6-1c-0.3-0.3-0.7-0.6-1.3-0.8c-0.5-0.2-1.2-0.3-2.1-0.3
			h-3.5V718.7z"/>
		<path class="st28" d="M1029.7,712.4h-6v-1.5h13.8v1.5h-6v16.2h-1.7V712.4z"/>
		<path class="st28" d="M1050.2,710.9h1.7v17.7h-1.7V710.9z"/>
		<path class="st28" d="M1067.1,725.4c0.4,0.8,1,1.3,1.7,1.7c0.7,0.4,1.5,0.5,2.4,0.5c0.5,0,1.1-0.1,1.5-0.2
			c0.5-0.2,0.9-0.4,1.3-0.7s0.6-0.7,0.8-1.1c0.2-0.4,0.3-0.9,0.3-1.4c0-0.6-0.1-1.1-0.4-1.5c-0.3-0.4-0.6-0.7-1-1s-0.9-0.5-1.5-0.7
			c-0.5-0.2-1.1-0.4-1.7-0.5c-0.6-0.2-1.1-0.4-1.7-0.6c-0.5-0.2-1-0.5-1.5-0.9s-0.8-0.8-1-1.4c-0.3-0.6-0.4-1.3-0.4-2.1
			c0-0.8,0.2-1.5,0.5-2.1c0.3-0.6,0.7-1.1,1.2-1.5c0.5-0.4,1.1-0.7,1.8-0.9c0.7-0.2,1.4-0.3,2.1-0.3c1,0,1.9,0.2,2.7,0.5
			c0.8,0.3,1.5,0.9,2.1,1.7l-1.4,1c-0.4-0.6-0.9-1-1.5-1.3c-0.6-0.3-1.2-0.4-2-0.4c-0.5,0-1,0.1-1.5,0.2c-0.5,0.1-0.9,0.4-1.3,0.6
			c-0.4,0.3-0.6,0.6-0.9,1c-0.2,0.4-0.3,0.9-0.3,1.5c0,0.9,0.2,1.6,0.7,2c0.5,0.5,1,0.9,1.7,1.1c0.7,0.3,1.4,0.5,2.2,0.7
			c0.8,0.2,1.5,0.5,2.2,0.8c0.7,0.4,1.2,0.8,1.7,1.5c0.4,0.6,0.7,1.5,0.7,2.6c0,0.8-0.2,1.5-0.5,2.1c-0.3,0.6-0.7,1.1-1.2,1.6
			c-0.5,0.4-1.1,0.7-1.8,1c-0.7,0.2-1.4,0.3-2.1,0.3c-1.2,0-2.2-0.2-3.2-0.6s-1.8-1.1-2.5-2.1L1067.1,725.4z"/>
		<path class="st28" d="M1094.5,712.4h-6v-1.5h13.8v1.5h-6v16.2h-1.7V712.4z"/>
		<path class="st28" d="M749.7,735.9h1.8l5.7,15.5l5.8-15.5h1.8l-6.7,17.7h-1.6L749.7,735.9z"/>
		<path class="st28" d="M777,735.9h1.7v17.7H777V735.9z"/>
		<path class="st28" d="M794,750.4c0.4,0.8,1,1.3,1.7,1.7c0.7,0.4,1.5,0.5,2.4,0.5c0.5,0,1.1-0.1,1.5-0.2c0.5-0.2,0.9-0.4,1.3-0.7
			s0.6-0.7,0.8-1.1c0.2-0.4,0.3-0.9,0.3-1.4c0-0.6-0.1-1.1-0.4-1.5c-0.3-0.4-0.6-0.7-1-1s-0.9-0.5-1.5-0.7c-0.5-0.2-1.1-0.4-1.7-0.5
			c-0.6-0.2-1.1-0.4-1.7-0.6c-0.5-0.2-1-0.5-1.5-0.9s-0.8-0.8-1-1.4c-0.3-0.6-0.4-1.3-0.4-2.1c0-0.8,0.2-1.5,0.5-2.1
			c0.3-0.6,0.7-1.1,1.2-1.5c0.5-0.4,1.1-0.7,1.8-0.9c0.7-0.2,1.4-0.3,2.1-0.3c1,0,1.9,0.2,2.7,0.5c0.8,0.3,1.5,0.9,2.1,1.7l-1.4,1
			c-0.4-0.6-0.9-1-1.5-1.3c-0.6-0.3-1.2-0.4-2-0.4c-0.5,0-1,0.1-1.5,0.2c-0.5,0.1-0.9,0.4-1.3,0.6c-0.4,0.3-0.6,0.6-0.9,1
			c-0.2,0.4-0.3,0.9-0.3,1.5c0,0.9,0.2,1.6,0.7,2c0.5,0.5,1,0.9,1.7,1.1c0.7,0.3,1.4,0.5,2.2,0.7c0.8,0.2,1.5,0.5,2.2,0.8
			c0.7,0.4,1.2,0.8,1.7,1.5c0.4,0.6,0.7,1.5,0.7,2.6c0,0.8-0.2,1.5-0.5,2.1c-0.3,0.6-0.7,1.1-1.2,1.6c-0.5,0.4-1.1,0.7-1.8,1
			c-0.7,0.2-1.4,0.3-2.1,0.3c-1.2,0-2.2-0.2-3.2-0.6s-1.8-1.1-2.5-2.1L794,750.4z"/>
		<path class="st28" d="M830,746.9c0,0.9-0.1,1.9-0.3,2.7c-0.2,0.9-0.6,1.6-1.1,2.3c-0.5,0.7-1.2,1.2-2,1.6c-0.8,0.4-1.8,0.6-3,0.6
			s-2.2-0.2-3-0.6c-0.8-0.4-1.5-0.9-2-1.6c-0.5-0.7-0.9-1.4-1.1-2.3c-0.2-0.9-0.3-1.8-0.3-2.7v-10.9h1.7v10.5c0,0.6,0.1,1.3,0.2,2
			s0.3,1.4,0.7,2c0.3,0.6,0.8,1.1,1.5,1.5c0.6,0.4,1.5,0.6,2.5,0.6s1.9-0.2,2.5-0.6c0.6-0.4,1.1-0.9,1.5-1.5c0.3-0.6,0.6-1.3,0.7-2
			s0.2-1.4,0.2-2v-10.5h1.7V746.9z"/>
		<path class="st28" d="M849.9,735.9h1.7l7.5,17.7h-1.8l-1.9-4.7h-9.4l-2,4.7h-1.7L849.9,735.9z M850.7,737.7l-4.1,9.7h8.1
			L850.7,737.7z"/>
		<path class="st28" d="M871.6,735.9h1.7v16.2h8.2v1.5h-9.9V735.9z"/>
		<path class="st27" d="M908.7,750.9c-0.8,1.1-1.8,2-3,2.5s-2.3,0.8-3.6,0.8c-1.3,0-2.6-0.2-3.7-0.7s-2.1-1.1-2.9-1.9
			s-1.4-1.8-1.9-3s-0.7-2.4-0.7-3.7c0-1.4,0.2-2.6,0.7-3.7c0.5-1.1,1.1-2.1,1.9-2.9c0.8-0.8,1.8-1.5,2.9-1.9
			c1.1-0.5,2.4-0.7,3.7-0.7c1.2,0,2.3,0.2,3.4,0.6c1,0.4,2,1.1,2.7,2.1l-1.4,1.1c-0.5-0.8-1.3-1.4-2.1-1.8c-0.9-0.4-1.7-0.6-2.6-0.6
			c-1.1,0-2.2,0.2-3.1,0.6s-1.7,1-2.4,1.7c-0.7,0.7-1.2,1.5-1.5,2.5c-0.4,1-0.5,2-0.5,3.1c0,1.1,0.2,2.1,0.5,3.1
			c0.3,0.9,0.8,1.8,1.5,2.5c0.6,0.7,1.4,1.2,2.4,1.7c0.9,0.4,2,0.6,3.1,0.6c0.5,0,0.9-0.1,1.4-0.2s1-0.3,1.4-0.5
			c0.5-0.2,0.9-0.5,1.3-0.9c0.4-0.3,0.8-0.8,1.1-1.2L908.7,750.9z"/>
		<path class="st27" d="M920.6,744.8c0-1.4,0.2-2.6,0.7-3.7c0.5-1.1,1.1-2.1,1.9-2.9c0.8-0.8,1.8-1.5,2.9-1.9
			c1.1-0.5,2.4-0.7,3.7-0.7c1.4,0,2.6,0.2,3.7,0.7c1.1,0.5,2.1,1.1,2.9,1.9c0.8,0.8,1.4,1.8,1.9,2.9c0.4,1.1,0.7,2.4,0.7,3.7
			c0,1.3-0.2,2.6-0.7,3.7c-0.5,1.1-1.1,2.1-1.9,3c-0.8,0.8-1.8,1.5-2.9,1.9s-2.4,0.7-3.7,0.7c-1.3,0-2.6-0.2-3.7-0.7
			s-2.1-1.1-2.9-1.9s-1.4-1.8-1.9-3S920.6,746.1,920.6,744.8z M922.2,744.8c0,1.1,0.2,2.1,0.5,3.1c0.3,0.9,0.8,1.8,1.5,2.5
			c0.6,0.7,1.4,1.2,2.4,1.7c0.9,0.4,2,0.6,3.1,0.6c1.2,0,2.2-0.2,3.1-0.6c0.9-0.4,1.7-1,2.4-1.7c0.6-0.7,1.1-1.5,1.5-2.5
			c0.3-1,0.5-2,0.5-3.1c0-1.1-0.2-2.1-0.5-3.1c-0.4-1-0.9-1.8-1.5-2.5c-0.7-0.7-1.4-1.2-2.4-1.7c-0.9-0.4-2-0.6-3.1-0.6
			c-1.1,0-2.2,0.2-3.1,0.6s-1.7,1-2.4,1.7c-0.7,0.7-1.2,1.5-1.5,2.5C922.4,742.7,922.2,743.7,922.2,744.8z"/>
		<path class="st27" d="M952.4,735.9h2.5l6.5,14.9l6.5-14.9h2.3v17.7h-1.6V738h0l-6.8,15.6h-0.7l-6.8-15.6h0v15.6h-1.7V735.9z"/>
		<path class="st27" d="M984.6,735.9h2.5l6.5,14.9l6.5-14.9h2.3v17.7h-1.6V738h0l-6.8,15.6h-0.7l-6.8-15.6h0v15.6h-1.7V735.9z"/>
		<path class="st27" d="M1029.6,746.9c0,0.9-0.1,1.9-0.3,2.7c-0.2,0.9-0.6,1.6-1.1,2.3c-0.5,0.7-1.2,1.2-2,1.6
			c-0.8,0.4-1.8,0.6-3,0.6s-2.2-0.2-3-0.6c-0.8-0.4-1.5-0.9-2-1.6c-0.5-0.7-0.9-1.4-1.1-2.3c-0.2-0.9-0.3-1.8-0.3-2.7v-10.9h1.7
			v10.5c0,0.6,0.1,1.3,0.2,2s0.3,1.4,0.7,2c0.3,0.6,0.8,1.1,1.5,1.5c0.6,0.4,1.5,0.6,2.5,0.6s1.9-0.2,2.5-0.6
			c0.6-0.4,1.1-0.9,1.5-1.5c0.3-0.6,0.6-1.3,0.7-2s0.2-1.4,0.2-2v-10.5h1.7V746.9z"/>
		<path class="st27" d="M1044.1,735.9h2.1l10.8,15.5h0v-15.5h1.7v17.7h-2.1l-10.8-15.5h0v15.5h-1.7V735.9z"/>
		<path class="st27" d="M1073.6,735.9h1.7v17.7h-1.7V735.9z"/>
		<path class="st27" d="M1104.6,750.9c-0.8,1.1-1.8,2-3,2.5s-2.3,0.8-3.6,0.8c-1.3,0-2.6-0.2-3.7-0.7s-2.1-1.1-2.9-1.9
			s-1.4-1.8-1.9-3s-0.7-2.4-0.7-3.7c0-1.4,0.2-2.6,0.7-3.7c0.5-1.1,1.1-2.1,1.9-2.9c0.8-0.8,1.8-1.5,2.9-1.9
			c1.1-0.5,2.4-0.7,3.7-0.7c1.2,0,2.3,0.2,3.4,0.6c1,0.4,2,1.1,2.7,2.1l-1.4,1.1c-0.5-0.8-1.3-1.4-2.1-1.8c-0.9-0.4-1.7-0.6-2.6-0.6
			c-1.1,0-2.2,0.2-3.1,0.6s-1.7,1-2.4,1.7c-0.7,0.7-1.2,1.5-1.5,2.5c-0.4,1-0.5,2-0.5,3.1c0,1.1,0.2,2.1,0.5,3.1
			c0.3,0.9,0.8,1.8,1.5,2.5c0.6,0.7,1.4,1.2,2.4,1.7c0.9,0.4,2,0.6,3.1,0.6c0.5,0,0.9-0.1,1.4-0.2s1-0.3,1.4-0.5
			c0.5-0.2,0.9-0.5,1.3-0.9c0.4-0.3,0.8-0.8,1.1-1.2L1104.6,750.9z"/>
		<path class="st27" d="M1123.1,735.9h1.7l7.5,17.7h-1.8l-1.9-4.7h-9.4l-2,4.7h-1.7L1123.1,735.9z M1123.9,737.7l-4.1,9.7h8.1
			L1123.9,737.7z"/>
		<path class="st27" d="M1147,737.4h-6v-1.5h13.8v1.5h-6v16.2h-1.7V737.4z"/>
		<path class="st27" d="M1166.3,744.8c0-1.4,0.2-2.6,0.7-3.7c0.5-1.1,1.1-2.1,1.9-2.9c0.8-0.8,1.8-1.5,2.9-1.9
			c1.1-0.5,2.4-0.7,3.7-0.7c1.4,0,2.6,0.2,3.7,0.7c1.1,0.5,2.1,1.1,2.9,1.9c0.8,0.8,1.4,1.8,1.9,2.9c0.4,1.1,0.7,2.4,0.7,3.7
			c0,1.3-0.2,2.6-0.7,3.7c-0.5,1.1-1.1,2.1-1.9,3c-0.8,0.8-1.8,1.5-2.9,1.9s-2.4,0.7-3.7,0.7c-1.3,0-2.6-0.2-3.7-0.7
			s-2.1-1.1-2.9-1.9s-1.4-1.8-1.9-3S1166.3,746.1,1166.3,744.8z M1167.9,744.8c0,1.1,0.2,2.1,0.5,3.1c0.3,0.9,0.8,1.8,1.5,2.5
			c0.6,0.7,1.4,1.2,2.4,1.7c0.9,0.4,2,0.6,3.1,0.6c1.2,0,2.2-0.2,3.1-0.6c0.9-0.4,1.7-1,2.4-1.7c0.6-0.7,1.1-1.5,1.5-2.5
			c0.3-1,0.5-2,0.5-3.1c0-1.1-0.2-2.1-0.5-3.1c-0.4-1-0.9-1.8-1.5-2.5c-0.7-0.7-1.4-1.2-2.4-1.7c-0.9-0.4-2-0.6-3.1-0.6
			c-1.1,0-2.2,0.2-3.1,0.6s-1.7,1-2.4,1.7c-0.7,0.7-1.2,1.5-1.5,2.5C1168.1,742.7,1167.9,743.7,1167.9,744.8z"/>
		<path class="st27" d="M1198.3,735.9h4.7c0.2,0,0.5,0,1,0c0.4,0,0.8,0.1,1.3,0.2c0.5,0.1,0.9,0.2,1.4,0.4c0.5,0.2,0.9,0.5,1.3,0.8
			c0.4,0.4,0.7,0.8,1,1.3c0.2,0.5,0.4,1.2,0.4,2c0,0.8-0.1,1.5-0.4,2.1c-0.3,0.6-0.7,1-1.1,1.3c-0.4,0.3-0.9,0.6-1.5,0.8
			s-1,0.3-1.5,0.3l5.2,8.5h-1.9l-5-8.4h-3.1v8.4h-1.7V735.9z M1199.9,743.7h3.5c0.9,0,1.6-0.1,2.1-0.3c0.5-0.2,1-0.5,1.3-0.8
			s0.5-0.7,0.6-1c0.1-0.4,0.2-0.7,0.2-1s-0.1-0.6-0.2-1c-0.1-0.4-0.3-0.7-0.6-1c-0.3-0.3-0.7-0.6-1.3-0.8c-0.5-0.2-1.2-0.3-2.1-0.3
			h-3.5V743.7z"/>
	</g>
	<line class="st29" x1="750" y1="695.5" x2="1772" y2="695.5"/>
</g>
</svg>
