<?xml version="1.0" encoding="utf-8"?>
<!-- Generator: Adobe Illustrator 18.0.0, SVG Export Plug-In . SVG Version: 6.00 Build 0)  -->
<!DOCTYPE svg PUBLIC "-//W3C//DTD SVG 1.1//EN" "http://www.w3.org/Graphics/SVG/1.1/DTD/svg11.dtd">
<svg version="1.1" xmlns="http://www.w3.org/2000/svg" xmlns:xlink="http://www.w3.org/1999/xlink" x="0px" y="0px"
	 viewBox="0 0 1900 1250" style="enable-background:new 0 0 1900 1250;" xml:space="preserve">
<style type="text/css">
	.st0{opacity:0.75;fill:#CEBC72;}
	.st1{display:none;}
	.st2{display:inline;fill:#353535;}
	.st3{fill:#54868A;}
	.st4{fill:#BB7E6F;}
	.st5{fill:#CEBC72;}
	.st6{fill:#353535;}
	.st7{fill:#7C7C7C;}
	.st8{fill:#999999;}
	.st9{fill:#7C4242;}
	.st10{fill:#F4EFEB;}
	.st11{fill:#822825;}
	.st12{display:inline;opacity:0.2;fill:#F4EFEB;}
	.st13{display:inline;opacity:0.25;fill:#F4EFEB;}
	.st14{display:inline;opacity:0.3;fill:#F4EFEB;}
	.st15{display:inline;opacity:0.35;fill:#F4EFEB;}
	.st16{display:inline;opacity:0.4;fill:#F4EFEB;}
	.st17{display:inline;opacity:0.45;fill:#F4EFEB;}
	.st18{display:inline;opacity:0.55;fill:#F4EFEB;}
	.st19{display:inline;opacity:1.000000e-02;fill:#F4EFEB;}
	.st20{fill:#DCD0A1;}
	.st21{opacity:0.8;fill:#3F3F3F;}
	.st22{fill:none;stroke:#54868A;stroke-miterlimit:10;}
	.st23{fill:#47373F;}
	.st24{fill:#C5795F;}
	.st25{fill:#858B9E;}
	.st26{opacity:0.7;fill:#4C4C4C;}
	.st27{opacity:0.6;fill:#4C4C4C;}
	.st28{opacity:0.4;fill:#4C4C4C;}
	.st29{opacity:0.25;fill:none;stroke:#8D8B8A;stroke-width:2;stroke-miterlimit:10;}
	.st30{opacity:0.2;fill:none;stroke:#8D8B8A;stroke-width:2;stroke-miterlimit:10;}
	.st31{fill:none;stroke:#848484;stroke-width:2;stroke-miterlimit:10;}
	.st32{opacity:0.95;fill:none;stroke:#848484;stroke-width:2;stroke-miterlimit:10;}
	.st33{fill:none;stroke:#8D8B8A;stroke-width:2;stroke-miterlimit:10;}
	.st34{opacity:0.95;fill:none;stroke:#8D8B8A;stroke-width:2;stroke-miterlimit:10;}
	.st35{opacity:0.9;fill:none;stroke:#8D8B8A;stroke-width:2;stroke-miterlimit:10;}
	.st36{opacity:0.85;fill:none;stroke:#8D8B8A;stroke-width:2;stroke-miterlimit:10;}
	.st37{opacity:0.8;fill:none;stroke:#8D8B8A;stroke-width:2;stroke-miterlimit:10;}
	.st38{opacity:0.75;fill:none;stroke:#8D8B8A;stroke-width:2;stroke-miterlimit:10;}
	.st39{opacity:0.7;fill:none;stroke:#8D8B8A;stroke-width:2;stroke-miterlimit:10;}
	.st40{opacity:0.65;fill:none;stroke:#8D8B8A;stroke-width:2;stroke-miterlimit:10;}
	.st41{opacity:0.6;fill:none;stroke:#8D8B8A;stroke-width:2;stroke-miterlimit:10;}
	.st42{opacity:0.55;fill:none;stroke:#8D8B8A;stroke-width:2;stroke-miterlimit:10;}
	.st43{opacity:0.5;fill:none;stroke:#8D8B8A;stroke-width:2;stroke-miterlimit:10;}
	.st44{opacity:0.45;fill:none;stroke:#8D8B8A;stroke-width:2;stroke-miterlimit:10;}
	.st45{opacity:0.4;fill:none;stroke:#8D8B8A;stroke-width:2;stroke-miterlimit:10;}
	.st46{opacity:0.3;fill:none;stroke:#8D8B8A;stroke-width:2;stroke-miterlimit:10;}
</style>
<g id="bg">
	<rect class="st0" width="1900" height="1250"/>
</g>
<g id="Layer_6" class="st1">
	<rect x="-3.3" y="3.3" class="st2" width="1898" height="1246.7"/>
</g>
<g id="colours">
</g>
<g id="guides" class="st1">
</g>
<g id="circle10" class="st1">
	<ellipse class="st12" cx="949.6" cy="802.2" rx="1324.1" ry="1298.5"/>
</g>
<g id="circle09" class="st1">
	<ellipse class="st13" cx="847.5" cy="715.8" rx="1001" ry="981.7"/>
</g>
<g id="circle08" class="st1">
	<ellipse class="st14" cx="853.7" cy="705.4" rx="891.3" ry="874"/>
</g>
<g id="circle07" class="st1">
	<ellipse class="st15" cx="846.7" cy="724.4" rx="770.3" ry="776"/>
</g>
<g id="circle06" class="st1">
	<ellipse class="st16" cx="847.4" cy="725.3" rx="648.6" ry="648.4"/>
</g>
<g id="circle05" class="st1">
	<ellipse class="st17" cx="845.2" cy="725.1" rx="583.8" ry="583.6"/>
</g>
<g id="circle04" class="st1">
	<ellipse class="st18" cx="841.9" cy="730.1" rx="509.1" ry="508.9"/>
</g>
<g id="circle03" class="st1">
	<ellipse class="st19" cx="842.4" cy="727.5" rx="446.9" ry="445.1"/>
</g>
<g id="circle02">
	<ellipse class="st20" cx="844.9" cy="729.5" rx="364" ry="367"/>
</g>
<g id="circle_01">
	<ellipse class="st10" cx="843.1" cy="731.3" rx="244.9" ry="243.8"/>
</g>
<g id="text">
	<path class="st3" d="M759.5,664.4c0,0.5,0,1.1-0.1,1.8c-0.1,0.6-0.3,1.3-0.6,1.8c-0.3,0.6-0.8,1.1-1.4,1.5
		c-0.6,0.4-1.5,0.6-2.7,0.6c-1.3,0-2.3-0.3-3.1-1c-0.8-0.7-1.3-1.5-1.5-2.6l1.7-0.3c0.4,1.6,1.4,2.4,3,2.4c0.6,0,1.1-0.1,1.5-0.3
		c0.4-0.2,0.7-0.5,1-0.8s0.4-0.7,0.5-1.2s0.2-1,0.2-1.5v-12.9h1.7V664.4z"/>
	<path class="st3" d="M773.2,660.7c0-1.3,0.2-2.6,0.7-3.7c0.5-1.1,1.1-2.1,1.9-2.9s1.8-1.5,2.9-1.9s2.4-0.7,3.7-0.7
		c1.4,0,2.6,0.2,3.7,0.7s2.1,1.1,2.9,1.9c0.8,0.8,1.4,1.8,1.9,2.9c0.4,1.1,0.7,2.4,0.7,3.7c0,1.4-0.2,2.6-0.7,3.7
		c-0.5,1.1-1.1,2.1-1.9,2.9c-0.8,0.8-1.8,1.5-2.9,1.9c-1.1,0.5-2.4,0.7-3.7,0.7c-1.3,0-2.6-0.2-3.7-0.7c-1.1-0.5-2.1-1.1-2.9-1.9
		c-0.8-0.8-1.4-1.8-1.9-2.9S773.2,662.1,773.2,660.7z M774.8,660.7c0,1.1,0.2,2.1,0.5,3.1c0.3,1,0.8,1.8,1.5,2.5
		c0.6,0.7,1.4,1.2,2.4,1.6c0.9,0.4,2,0.6,3.1,0.6c1.2,0,2.2-0.2,3.1-0.6c0.9-0.4,1.7-1,2.4-1.6c0.6-0.7,1.1-1.5,1.5-2.5
		c0.3-1,0.5-2,0.5-3.1c0-1.1-0.2-2.1-0.5-3.1c-0.4-1-0.9-1.8-1.5-2.5c-0.7-0.7-1.4-1.2-2.4-1.6c-0.9-0.4-2-0.6-3.1-0.6
		c-1.1,0-2.2,0.2-3.1,0.6c-0.9,0.4-1.7,0.9-2.4,1.6c-0.7,0.7-1.2,1.5-1.5,2.5C775,658.6,774.8,659.6,774.8,660.7z"/>
	<path class="st3" d="M809.6,651.9h1.7l7.5,17.7h-1.8l-1.9-4.7h-9.4l-2,4.7h-1.7L809.6,651.9z M810.4,653.7l-4.1,9.7h8.1
		L810.4,653.7z"/>
	<path class="st3" d="M831.3,651.9h2.1l10.8,15.5h0v-15.5h1.7v17.7h-2.1L833,654.1h0v15.5h-1.7V651.9z"/>
	<path class="st3" d="M860.7,651.9h2.1l10.8,15.5h0v-15.5h1.7v17.7h-2.1l-10.8-15.5h0v15.5h-1.7V651.9z"/>
	<path class="st21" d="M895.6,651.9h1.7l7.5,17.7h-1.8l-1.9-4.7h-9.4l-2,4.7h-1.7L895.6,651.9z M896.4,653.7l-4.1,9.7h8.1
		L896.4,653.7z"/>
	<path class="st3" d="M750.3,686.9h4.7c0.2,0,0.5,0,1,0c0.4,0,0.8,0.1,1.3,0.1c0.5,0.1,0.9,0.2,1.4,0.4s0.9,0.5,1.3,0.8
		s0.7,0.8,1,1.3s0.4,1.2,0.4,2c0,0.8-0.1,1.5-0.4,2.1c-0.3,0.5-0.7,1-1.1,1.3c-0.4,0.3-0.9,0.6-1.5,0.8c-0.5,0.2-1,0.3-1.5,0.4
		l5.2,8.5H760l-5-8.4h-3.1v8.4h-1.7V686.9z M751.9,694.7h3.5c0.9,0,1.6-0.1,2.1-0.3c0.5-0.2,1-0.5,1.3-0.8c0.3-0.3,0.5-0.7,0.6-1
		c0.1-0.4,0.2-0.7,0.2-1c0-0.3-0.1-0.6-0.2-1c-0.1-0.4-0.3-0.7-0.6-1s-0.7-0.6-1.3-0.8c-0.5-0.2-1.2-0.3-2.1-0.3h-3.5V694.7z"/>
	<path class="st3" d="M787.7,697.8c0,1-0.1,1.9-0.3,2.7c-0.2,0.9-0.6,1.6-1.1,2.3c-0.5,0.7-1.2,1.2-2,1.6c-0.8,0.4-1.8,0.6-3,0.6
		s-2.2-0.2-3-0.6c-0.8-0.4-1.5-0.9-2-1.6c-0.5-0.7-0.9-1.4-1.1-2.3c-0.2-0.9-0.3-1.8-0.3-2.7v-10.9h1.7v10.5c0,0.6,0.1,1.3,0.2,2
		s0.3,1.4,0.7,2c0.3,0.6,0.8,1.1,1.5,1.5c0.6,0.4,1.5,0.6,2.5,0.6s1.9-0.2,2.5-0.6c0.6-0.4,1.1-0.9,1.5-1.5c0.3-0.6,0.6-1.3,0.7-2
		s0.2-1.4,0.2-2v-10.5h1.7V697.8z"/>
	<path class="st3" d="M807.6,686.9h1.7l7.5,17.7h-1.8l-1.9-4.7h-9.4l-2,4.7h-1.7L807.6,686.9z M808.4,688.7l-4.1,9.7h8.1
		L808.4,688.7z"/>
	<path class="st3" d="M829.8,701.3c0.4,0.8,1,1.3,1.7,1.7c0.7,0.4,1.5,0.6,2.4,0.6c0.5,0,1.1-0.1,1.5-0.2c0.5-0.2,0.9-0.4,1.3-0.7
		s0.6-0.7,0.8-1.1s0.3-0.9,0.3-1.4c0-0.6-0.1-1.1-0.4-1.5c-0.3-0.4-0.6-0.7-1-1c-0.4-0.3-0.9-0.5-1.5-0.7c-0.5-0.2-1.1-0.4-1.7-0.5
		s-1.1-0.4-1.7-0.6c-0.5-0.2-1-0.5-1.5-0.9s-0.8-0.8-1-1.4c-0.3-0.6-0.4-1.3-0.4-2.1c0-0.8,0.2-1.5,0.5-2.1c0.3-0.6,0.7-1.1,1.2-1.5
		c0.5-0.4,1.1-0.7,1.8-0.9c0.7-0.2,1.4-0.3,2.1-0.3c1,0,1.9,0.2,2.7,0.5c0.8,0.3,1.5,0.9,2.1,1.7l-1.4,1c-0.4-0.6-0.9-1-1.5-1.3
		c-0.6-0.3-1.2-0.4-2-0.4c-0.5,0-1,0.1-1.5,0.2c-0.5,0.1-0.9,0.3-1.3,0.6c-0.4,0.3-0.6,0.6-0.9,1c-0.2,0.4-0.3,0.9-0.3,1.5
		c0,0.9,0.2,1.6,0.7,2s1,0.8,1.7,1.1s1.4,0.5,2.2,0.7c0.8,0.2,1.5,0.5,2.2,0.8c0.7,0.3,1.2,0.8,1.7,1.5c0.4,0.6,0.7,1.5,0.7,2.6
		c0,0.8-0.2,1.5-0.5,2.1c-0.3,0.6-0.7,1.1-1.2,1.6c-0.5,0.4-1.1,0.7-1.8,1c-0.7,0.2-1.4,0.3-2.1,0.3c-1.2,0-2.2-0.2-3.2-0.6
		s-1.8-1.1-2.5-2.1L829.8,701.3z"/>
	<path class="st3" d="M852.1,695.7c0-1.3,0.2-2.6,0.7-3.7c0.5-1.1,1.1-2.1,1.9-2.9s1.8-1.5,2.9-1.9s2.4-0.7,3.7-0.7
		c1.4,0,2.6,0.2,3.7,0.7s2.1,1.1,2.9,1.9c0.8,0.8,1.4,1.8,1.9,2.9c0.4,1.1,0.7,2.4,0.7,3.7c0,1.4-0.2,2.6-0.7,3.7
		c-0.5,1.1-1.1,2.1-1.9,2.9c-0.8,0.8-1.8,1.5-2.9,1.9c-1.1,0.5-2.4,0.7-3.7,0.7c-1.3,0-2.6-0.2-3.7-0.7c-1.1-0.5-2.1-1.1-2.9-1.9
		c-0.8-0.8-1.4-1.8-1.9-2.9S852.1,697.1,852.1,695.7z M853.7,695.7c0,1.1,0.2,2.1,0.5,3.1c0.3,1,0.8,1.8,1.5,2.5
		c0.6,0.7,1.4,1.2,2.4,1.6c0.9,0.4,2,0.6,3.1,0.6c1.2,0,2.2-0.2,3.1-0.6c0.9-0.4,1.7-1,2.4-1.6c0.6-0.7,1.1-1.5,1.5-2.5
		c0.3-1,0.5-2,0.5-3.1c0-1.1-0.2-2.1-0.5-3.1c-0.4-1-0.9-1.8-1.5-2.5c-0.7-0.7-1.4-1.2-2.4-1.6c-0.9-0.4-2-0.6-3.1-0.6
		c-1.1,0-2.2,0.2-3.1,0.6c-0.9,0.4-1.7,0.9-2.4,1.6c-0.7,0.7-1.2,1.5-1.5,2.5C853.9,693.6,853.7,694.6,853.7,695.7z"/>
	<path class="st3" d="M884.1,686.9h1.7v16.2h8.2v1.5h-9.9V686.9z"/>
	<path class="st21" d="M750,736.9h5.5c1.5,0,2.8,0.2,3.9,0.6c1.1,0.4,2,0.9,2.7,1.4c0.7,0.6,1.3,1.2,1.7,1.9c0.4,0.7,0.7,1.4,0.9,2
		c0.2,0.7,0.3,1.2,0.4,1.8c0,0.5,0.1,0.9,0.1,1.1c0,0.2,0,0.6-0.1,1.1c0,0.5-0.2,1.1-0.4,1.8c-0.2,0.7-0.5,1.3-0.9,2s-1,1.4-1.7,1.9
		s-1.6,1.1-2.7,1.4c-1.1,0.4-2.4,0.6-3.9,0.6H750V736.9z M751.7,753.1h3.4c1.2,0,2.3-0.1,3.3-0.4c1-0.3,1.9-0.7,2.6-1.3
		c0.8-0.6,1.3-1.4,1.8-2.3c0.4-0.9,0.6-2,0.6-3.3c0-1.3-0.2-2.4-0.6-3.3c-0.4-0.9-1-1.7-1.8-2.3c-0.8-0.6-1.6-1-2.6-1.3
		c-1-0.3-2.1-0.4-3.3-0.4h-3.4V753.1z"/>
	<path class="st21" d="M778.8,736.9h10.8v1.5h-9.2v6.3h8.6v1.5h-8.6v6.9h9.6v1.5h-11.2V736.9z"/>
	<path class="st21" d="M804.1,751.3c0.4,0.8,1,1.3,1.7,1.7c0.7,0.4,1.5,0.6,2.4,0.6c0.5,0,1.1-0.1,1.5-0.2c0.5-0.2,0.9-0.4,1.3-0.7
		s0.6-0.7,0.8-1.1s0.3-0.9,0.3-1.4c0-0.6-0.1-1.1-0.4-1.5c-0.3-0.4-0.6-0.7-1-1c-0.4-0.3-0.9-0.5-1.5-0.7c-0.5-0.2-1.1-0.4-1.7-0.5
		s-1.1-0.4-1.7-0.6c-0.5-0.2-1-0.5-1.5-0.9s-0.8-0.8-1-1.4c-0.3-0.6-0.4-1.3-0.4-2.1c0-0.8,0.2-1.5,0.5-2.1c0.3-0.6,0.7-1.1,1.2-1.5
		c0.5-0.4,1.1-0.7,1.8-0.9c0.7-0.2,1.4-0.3,2.1-0.3c1,0,1.9,0.2,2.7,0.5c0.8,0.3,1.5,0.9,2.1,1.7l-1.4,1c-0.4-0.6-0.9-1-1.5-1.3
		c-0.6-0.3-1.2-0.4-2-0.4c-0.5,0-1,0.1-1.5,0.2c-0.5,0.1-0.9,0.3-1.3,0.6c-0.4,0.3-0.6,0.6-0.9,1c-0.2,0.4-0.3,0.9-0.3,1.5
		c0,0.9,0.2,1.6,0.7,2s1,0.8,1.7,1.1s1.4,0.5,2.2,0.7c0.8,0.2,1.5,0.5,2.2,0.8c0.7,0.3,1.2,0.8,1.7,1.5c0.4,0.6,0.7,1.5,0.7,2.6
		c0,0.8-0.2,1.5-0.5,2.1c-0.3,0.6-0.7,1.1-1.2,1.6c-0.5,0.4-1.1,0.7-1.8,1c-0.7,0.2-1.4,0.3-2.1,0.3c-1.2,0-2.2-0.2-3.2-0.6
		s-1.8-1.1-2.5-2.1L804.1,751.3z"/>
	<path class="st21" d="M827.5,736.9h1.7v17.7h-1.7V736.9z"/>
	<path class="st21" d="M858.6,753.4c-1,0.6-2.1,1-3.2,1.2c-1.1,0.2-2.2,0.4-3.4,0.4c-1.3,0-2.6-0.2-3.7-0.7
		c-1.1-0.5-2.1-1.1-2.9-1.9c-0.8-0.8-1.4-1.8-1.9-2.9s-0.7-2.4-0.7-3.7c0-1.3,0.2-2.6,0.7-3.7c0.5-1.1,1.1-2.1,1.9-2.9
		s1.8-1.5,2.9-1.9s2.4-0.7,3.7-0.7c2.6,0,4.8,0.8,6.4,2.5l-1.2,1.2c-0.3-0.3-0.6-0.6-1-0.9c-0.4-0.3-0.8-0.5-1.3-0.7
		c-0.5-0.2-0.9-0.3-1.4-0.4s-1-0.2-1.5-0.2c-1.1,0-2.2,0.2-3.1,0.6c-0.9,0.4-1.7,0.9-2.4,1.6c-0.7,0.7-1.2,1.5-1.5,2.5
		c-0.4,0.9-0.5,2-0.5,3.1c0,1.1,0.2,2.1,0.5,3.1c0.3,1,0.8,1.8,1.5,2.5c0.6,0.7,1.4,1.2,2.4,1.6c0.9,0.4,2,0.6,3.1,0.6
		c1,0,1.8-0.1,2.7-0.2c0.8-0.1,1.6-0.4,2.3-0.8v-5.9h-4.2V745h5.9V753.4z"/>
	<path class="st21" d="M873.5,736.9h2.1l10.8,15.5h0v-15.5h1.7v17.7h-2.1l-10.8-15.5h0v15.5h-1.7V736.9z"/>
	<path class="st21" d="M902.9,736.9h10.8v1.5h-9.2v6.3h8.6v1.5h-8.6v6.9h9.6v1.5h-11.2V736.9z"/>
	<path class="st21" d="M927.7,736.9h4.7c0.2,0,0.5,0,1,0c0.4,0,0.8,0.1,1.3,0.1c0.5,0.1,0.9,0.2,1.4,0.4s0.9,0.5,1.3,0.8
		s0.7,0.8,1,1.3s0.4,1.2,0.4,2c0,0.8-0.1,1.5-0.4,2.1c-0.3,0.5-0.7,1-1.1,1.3c-0.4,0.3-0.9,0.6-1.5,0.8c-0.5,0.2-1,0.3-1.5,0.4
		l5.2,8.5h-1.9l-5-8.4h-3.1v8.4h-1.7V736.9z M929.4,744.7h3.5c0.9,0,1.6-0.1,2.1-0.3c0.5-0.2,1-0.5,1.3-0.8c0.3-0.3,0.5-0.7,0.6-1
		c0.1-0.4,0.2-0.7,0.2-1c0-0.3-0.1-0.6-0.2-1c-0.1-0.4-0.3-0.7-0.6-1s-0.7-0.6-1.3-0.8c-0.5-0.2-1.2-0.3-2.1-0.3h-3.5V744.7z"/>
	<line class="st22" x1="750" y1="721.5" x2="1817" y2="721.5"/>
</g>
<g id="shapes">
	<path class="st29" d="M1897,1235l-154.6-75.8l-0.5-0.6l-0.9,0.4c-26.1,9-130.7,42.8-150.2,49.1l-48.7-141.5l-0.4-1.3l-113.2-55
		l-31.4-91.3l-96.5,33.5l-53.1-25.8l-132.4,45.8l-46.9-136.2l-0.4-1.3l-57.9-28.1l-3,6l55.4,26.9l48.6,141.2l136.1-47.1l53.1,25.8
		l92.8-32.2l30.1,87.5l113.2,55l50.5,146.4l3.1-1c1.2-0.4,119.8-39.2,150.8-49.7l156.3,76.6V1235z"/>
	<path class="st30" d="M1897,1157.5l-131.9-55l-0.5-0.5l-0.9,0.5c-25.5,10.5-127.4,50.6-146.4,58l-57.3-137.8l-0.5-1.3l-116-47.9
		l-37-88.9l-93.9,39.2l-54.4-22.4l-128.9,53.6L1074,822.5l-0.5-1.3l-59.3-24.5l-2.5,6.2l56.8,23.4l55.9,134.4l1.3,3.1l132.5-55.1
		l54.4,22.4l90.3-37.7l35,84l0.5,1.3l116.1,47.9l58.1,139.6l1.2,3l3-1.2c1.2-0.5,116.8-46.4,147-58.8l133.2,55.5V1157.5z"/>
	<path class="st31" d="M672.6,556.2l-1.2-150.7l-144.8,1l-42.5-41.9l-98.8,0.8l-0.7-93.5l-90.3-89.1l-1-156.5l-3.3,0
		c-1.3,0-128.4,1.6-161.4,1.7L99.1,2h-9.7l35.4,31.8l1-0.7l1.4-0.9c27.7-0.1,138.7,0.9,159.3,1.2l0.9,151.1l0,1.3l90.3,89l0.7,97.4
		l102.8-0.9l42.5,41.9l140.8-0.9l1.1,146.7l46,45.7l4.7-4.8L672.6,556.2z"/>
	<path class="st32" d="M662.4,567.3l-10.1-146.4l-0.2-3.4l-143.6,9.9l-43.7-38.1l-1-0.9l-98.1,6.9l-6.3-91.5l-0.1-1.4l-95.1-83
		L253.6,63.9l-3.3,0.2C249,64.2,122.7,73.4,90,75.5L2,1.7v7.6l81.7,69.1l2.5,0.9l2.1-0.1c27.5-1.9,138.1-7.2,158.6-8.2l10.4,150.3
		l0.2,1.4l95.1,83l6.7,96.8l102-7.1l43.7,38.1l1,0.9l139.7-9.6l10,144.5l0.1,1.4l48.5,42.5l4.4-5.1L662.4,567.3z"/>
	<path class="st33" d="M652.9,579.3l-19.5-147.6l-142.2,18.7l-46.8-35.8l-97,12.9l-11.9-90.2l-0.2-1.4l-99.6-76.3l-20-153.3
		l-3.3,0.4c-1.3,0.1-129.4,14-161.7,18.1L2,89.4v8.4l45.7,33.1l2.6,0.8l2.1-0.2c27.3-3.5,136.8-15.6,157.1-17.9l19.6,148.2l0.3,1.4
		l99.6,76.3l12.6,95.4l100.9-13.4l46.8,35.8l138.3-18.2l18.8,142.4l0.2,1.4l50.8,39.1l4.1-5.3L652.9,579.3z"/>
	<path class="st33" d="M643.9,591.4l-28.6-146.1l-140.7,27.4l-49-32.8l-96,18.8l-17.7-90.6l-104.1-70l-29.5-151.7l-3.2,0.6
		c-1.3,0.2-128.3,21.7-160.3,27.9L2,167.5v8l11.3,6.4l2.9-0.3c27-5.3,135.9-24.1,156.1-27.6l28.9,146.6l0.5,1.4l104.2,70l18.5,94.5
		l99.9-19.6l49,32.8L610,453.1l27.6,141l0.3,1.4l53.1,35.9l3.7-5.5L643.9,591.4z"/>
	<path class="st34" d="M635.7,604L598.1,460l-138.8,36.1l-50.9-29.8L313.8,491l-23-88l-0.3-1.4l-108.3-63.4l-38-146.4l-0.8-3.2
		l-6.2,0.7c-1,0.2-87.7,20.4-135.2,31.8v6.9c42.3-10.1,117.4-27.6,133.6-31.5l39,144.6l1.1,1.4l108.6,63.4l24.5,93.1l98.5-25.7
		l50.9,29.8l135-35.1l36.3,139l0.4,1.4l55.2,32.5l3.4-5.8L635.7,604z"/>
	<path class="st35" d="M628.2,617.2l-46.4-141.5l-136.3,44.6l-51.4-25.9l-1.3-0.6L300,524.3l-28.8-87.8l-112-56.5l-48-146.9l-5.1,1
		c-0.8,0.3-58.8,17.3-104.1,31.3v7c40.2-12.3,90.2-27.1,102.9-30.9l47.8,143.3l112.5,56.5l30.3,91.5l96.8-31.8l51.5,25.9l1.3,0.6
		l132.5-43.3l44.8,136.4l0.4,1.3l57.2,29l3-6L628.2,617.2z"/>
	<path class="st35" d="M621.6,630.8l-55.1-138.4l-133.3,52.9l-54.2-23.2l-90.9,36.3l-34.2-85.8l-115.2-49.5L83,282.5l-1.2-3
		l-4.6,1.1c-0.7,0.2-37.9,13.7-75.3,27.7v7.2c32.4-12,64.8-23.8,74.5-27.4l56.4,140.2l115.6,49.5l35.8,89.4l94.6-37.7l54.2,23.2
		l129.7-51.5l53.1,133.4l0.5,1.3l58.9,25.4l2.7-6.1L621.6,630.8z"/>
	<path class="st35" d="M615.9,644.8l-62.1-131.7l-1.4-3l-129.7,61.1l-55.5-19.9l-88.5,41.8l-39.4-83.5l-118.1-42.3L56.8,330.4
		l-1.4-3l-4.5,1.3c-0.5,0.2-23,9.5-48.9,21.2v7.4c22-9.7,41.6-18,48.6-21.1L115,471.4l1,1.2L234.2,515l41.2,87.1l92.1-43.5
		l55.5,19.9L549.2,519l61.3,129.9l0.6,1.2l60.3,21.7l2.3-6.3L615.9,644.8z"/>
	<path class="st35" d="M611.1,659.1l-71.7-130.5l-125.7,69l-55.4-16l-1.3-0.4l-85.7,47.2l-44.5-80.9l-120.5-34.9L32,377l-4.4,1.5
		c-0.3,0.2-11.1,5.2-25.6,12.6v7.6c11.8-5.9,21.5-10.5,25.8-12.8l73.3,132.2l120.9,34.9l46.5,84.4l89.2-49.1l56.7,16.4l122.3-67.1
		l69.9,127l61.5,18l1.9-6.4L611.1,659.1z"/>
	<path class="st35" d="M607.1,673.6l-79.7-125.8l-121.1,76.6l-57.6-12.8L266.1,664l-49.4-78L94.3,558.6L11.7,428l-4.3,1.7
		c-0.1,0.1-2.4,1-5.4,2.5v8c2.5-1.2,4.7-2.3,6-3l81.3,127.5l122.8,27.4l51.7,81.3l86-54.5l57.6,12.8l117.9-74.5l76.9,121.3l0.7,1.2
		l62.5,14.1l1.5-6.5L607.1,673.6z"/>
	<polygon class="st36" points="604,688.4 516.7,567.8 400.5,651.8 342.3,642.5 263.1,699.9 208.9,625.1 83.6,605.3 2,494.4 2,505.8 
		79,610.4 80.5,611.5 204.8,631.3 261.4,709.3 343.9,649.5 402.1,658.8 515.2,577.1 599.4,693.5 600.2,694.6 663.5,704.8 
		664.6,698.2 	"/>
	<polygon class="st37" points="601.9,703.3 507.3,588.4 396.5,679.4 339.2,673.9 337.8,673.7 262.3,735.9 204.5,665.7 203.6,664.6 
		77.3,652.5 2,562.6 2,573.1 73,657.8 74.6,658.9 199.9,671 261.2,745.3 339.8,680.6 398.6,686.3 506.4,597.8 597.6,708.7 
		598.5,709.7 662.3,716 662.9,709.4 	"/>
	<polygon class="st37" points="600.7,718.4 501.4,611.9 499.2,609.5 394.2,707.2 336.7,705.2 335.3,705.2 263.8,771.9 201.7,705.4 
		200.8,704.4 73.9,700 2,624.2 2,634 70,705.6 71.7,706.6 197.4,711 261,778.9 263.4,781.4 337.8,711.9 396.7,713.9 498.8,618.9 
		596.7,724 597.7,725 661.7,727.3 662,720.6 	"/>
	<polygon class="st37" points="661.8,731.9 600.4,733.5 494.8,633.4 492.4,631.1 393.6,735 336.1,736.7 334.7,736.7 267.4,807.8 
		200.4,744.2 73.5,747.7 2,681.1 2,690.3 69.9,753.4 71.7,754.4 197.5,751 267.5,817.2 337.6,743.3 395.2,741.7 396.6,741.6 
		492.6,640.5 597.8,740.2 661.9,738.6 	"/>
	<polygon class="st37" points="662.2,743.2 601.1,748.6 489.5,655.2 486.9,653 394.8,762.9 336.1,768.2 273.4,843.3 202.5,784.1 
		76.1,795.2 2,734.3 2,743 73.9,802.1 199.6,790.9 273.8,852.7 339.3,774.6 398,769.3 487.7,662.4 598.9,755.4 662.8,749.9 	"/>
	<polygon class="st37" points="663.3,754.5 602.7,763.6 485.5,677.3 482.8,675.3 397.7,790.7 339.4,799.6 281.4,878.4 207.1,823.6 
		81.6,842.5 2,784.9 2,793.2 78.7,848.7 80.6,849.6 205,830.7 282.7,887.7 343.1,805.8 401.4,796.9 484.2,684.6 600.9,770.6 
		664.3,761.1 	"/>
	<polygon class="st37" points="665.2,765.6 605.2,778.4 482.9,699.5 480.1,697.7 402.3,818.2 346,830.4 344.7,830.7 291.7,912.9 
		214.1,862.9 90,889.4 2,833.5 2,841.4 87.5,895.8 89.4,896.5 212.4,870 293.5,922.2 348.7,836.6 405,824.4 406.4,824.1 482.1,707 
		602.7,784.8 603.9,785.6 666.6,772.1 	"/>
	<polygon class="st38" points="667.7,776.6 608.6,793.2 481.7,722 478.7,720.3 408.6,845.4 351.8,861.4 304,946.8 224.7,902.3 
		223.5,901.6 101.2,935.6 2,880.7 2,888.4 99.2,942.1 101.1,942.8 222.3,908.8 306.4,955.9 356.2,867.1 413,851.1 481.3,729.4 
		606.5,799.7 607.8,800.4 669.5,783.1 	"/>
	<polygon class="st39" points="674.8,798.1 618.2,821.8 480.3,765.5 426.1,898.3 373.1,920.7 371.8,921.2 334.9,1011.8 249.4,977 
		132.3,1025.7 2,973.1 2,980.3 131,1032.4 133.1,1032.9 249,984.2 338.4,1020.5 376.8,926.3 429.9,903.9 431.2,903.4 483.9,774.2 
		618.2,829 677.4,804.2 	"/>
	<polygon class="st39" points="670.9,787.5 613,807.6 478.9,743 416.5,872.1 360.9,891.6 318.5,979.7 236.5,940.3 235.3,939.7 
		115.4,981.1 2,927.2 2,934.6 113.7,987.8 115.7,988.3 234.5,946.9 321.4,988.7 365.6,897 421.3,877.5 481.9,751.9 611.3,814.2 
		612.6,814.8 673.1,793.8 	"/>
	<path class="st39" d="M679.3,808.4l-55,27.2L486.4,789l-3.2-1.1l-45.9,135.9l-52.8,26.2l-31.2,92.7l-87.5-29.5L153.4,1069L7,1019.6
		l-2.6,3.1c0,0.1-0.9,1.9-2.3,4.9v18.1c3.3-8,6.3-14.2,7.5-17.6l143.6,48.2l112.8-55.7l91.4,30.7l32.6-96.4l52.8-26.2l44.7-132.2
		l136.1,45.9l1.3,0.4l57.5-28.4L679.3,808.4z"/>
	<path class="st39" d="M684.5,818.5L631.2,849l-143.8-38.8L450,948.7L399,978.1l-25.4,94.5l-89.2-24l-108.7,62.6l-149.2-40.3
		L24,1074c-0.2,0.7-11.3,34.3-22,70.7v24.5c11.2-37.4,24.2-78.6,27.5-90.1l146.3,39.3l109.1-62.6l93.1,25l26.5-98.3l51.1-29.4
		l36.4-134.6l138.6,37.4l1.3,0.3l55.6-31.9L684.5,818.5z"/>
	<path class="st39" d="M690.2,828.2L638.9,862l-145.9-29.8l-28.8,140.5l-48,31.7l-1.2,0.8l-19.5,95.9l-90.5-18.4l-104.7,69.2
		l-151.4-31l-0.7,4.8c-0.2,1-16.4,73.4-27,122.4h6.8c9.3-43,22.7-103.3,26-117.7l146.4,29.1l1.4-0.1l104.7-69.4l94.3,19.1l20.3-99.7
		l48-31.8l1.2-0.8l28-136.7L639,868.8l1.4,0.3l53.5-35.3L690.2,828.2z"/>
	<path class="st39" d="M696.6,837.5l-49.1,36.9l-144.2-20.3l-3.3-0.4l-20,142l-45.9,34.7l-1.1,0.8l-13.5,96.9l-91.5-12.8
		l-100.2,75.6L78,1169.7l-3.2-0.4l-0.5,4.9c-0.1,0.7-5.7,35.9-11.6,73.9h6.8c4.9-31,9.4-60.2,11-69.6l147.9,20l1.4-0.2l100.2-75.8
		l95.3,13.3l14.1-100.8l45.9-34.7l1.1-0.8l19.5-138.1l142.2,20l1.4,0.2l51.3-38.6L696.6,837.5z"/>
	<path class="st39" d="M703.5,846.4l-46.7,39.9L511.6,875l-3.3-0.2l-11.2,142.9l-43.7,37.5l-1.1,0.9l-7.5,97.5l-92.1-7.1l-95.3,81.6
		l-150.8-11.8l-3.3-0.2l-0.3,4.9c0,0.4-1,11.1-2.5,27.1h6.7c1-11,1.7-19.1,2.1-23.2l148.9,10.8l1.4-0.3l95.3-81.8l95.9,7.3
		l7.8-101.5l43.7-37.5l1.1-0.9l10.9-139.1l143.2,11.1l1.4,0.1l48.8-41.7L703.5,846.4z"/>
	<polygon class="st40" points="710.9,854.9 666.8,897.6 517.9,895.2 515.6,1038.6 473.3,1079.7 471.8,1177.5 380.9,1176.1 
		379.5,1177.8 308.6,1248 318.2,1248 382.2,1184.5 478.4,1185.1 479.9,1083 522.2,1041.7 524.5,902.1 668.1,904.4 669.4,904.4 
		715.6,859.7 	"/>
	<polygon class="st41" points="718.9,862.9 677.5,908.3 528.7,915.1 535.3,1058.4 495.6,1101.9 500.2,1199.7 409.4,1203.9 
		408,1205.6 370.7,1248 379.7,1248 411.1,1212.2 507.2,1206.9 502.4,1104.8 542.1,1061.1 535.7,921.6 679.2,914.9 680.6,914.8 
		723.8,867.5 	"/>
	<polygon class="st41" points="727.3,870.5 688.8,918.2 544.1,933.9 540.7,934.3 556.2,1076.9 519.3,1122.8 529.9,1220.1 
		439.5,1229.9 438.1,1231.7 426.1,1248 434.5,1248 441.6,1238.1 537.3,1226.8 526.2,1125.3 563.1,1079.1 548.1,940.3 690.9,924.8 
		692.3,924.6 732.5,874.7 	"/>
	<polygon class="st41" points="736.2,877.4 700.7,927.5 557.2,952.1 554,952.7 578.2,1094 545,1141 544.2,1142.2 560.8,1240.2 
		521.7,1248 556,1248 556,1248.1 568.3,1245.5 551.2,1144.5 584.4,1097.1 585.2,1095.8 561.6,958.2 703.2,933.9 704.6,933.6 
		741.7,881.3 	"/>
	<polygon class="st41" points="751.2,887.4 745.5,883.8 713.2,936 568.3,970.2 601.2,1109.8 571,1158.8 570.2,1161.6 590.3,1248 
		597.2,1248 577.4,1162.8 607.6,1112.9 608.3,1111.3 576.3,975.4 717.4,941.9 	"/>
	<polygon class="st41" points="755.2,889.6 726.2,943.7 586.8,985.9 583.6,986.8 625.1,1124.8 597.3,1177.8 618.2,1248 625.1,1248 
		604.5,1178.5 631.7,1126.9 632.3,1125.2 591.9,991.5 729.4,949.8 730.7,949.4 761.1,892.8 	"/>
	<polygon class="st41" points="765.2,894.8 739.6,950.6 600,1002.5 649.9,1136.9 625.4,1192.2 645.6,1248 652.8,1248 632.6,1192.4 
		657.1,1138 608.6,1006.8 744.5,956.1 771.3,897.7 	"/>
	<polygon class="st41" points="775.6,899.4 753.5,956.7 617.3,1017 675.4,1148.9 654.3,1204.8 672.8,1248 680.1,1248 661.5,1204.6 
		682.2,1150.1 682.6,1148.4 626.1,1020.7 757.4,962.3 758.7,961.7 781.8,901.8 	"/>
	<polygon class="st41" points="786.2,903.4 767.6,961.8 638.4,1029 635.4,1030.6 701.6,1158.5 683.9,1215.6 700,1248 707.5,1248 
		691.1,1215 708.8,1158 644.5,1033.8 771.9,967.3 773.2,966.6 792.5,905.4 	"/>
	<polygon class="st42" points="797,906.6 782.1,966.1 654.4,1042.9 728.3,1166.5 714.1,1224.7 727.3,1248 735.1,1248 721.3,1223.6 
		735.5,1165.5 663.6,1045.6 786.7,971.4 787.9,970.5 803.5,908.3 	"/>
	<polygon class="st43" points="808,909.2 796.8,969.5 674.1,1054 755.5,1172.9 744.8,1231.7 755.2,1248 763.3,1248 751.9,1230.2 
		762.6,1171.4 683.4,1056.2 801.7,974.5 802.9,973.6 814.5,910.5 	"/>
	<polygon class="st43" points="819.1,911.1 811.7,972 697.1,1061.9 694.5,1064 783,1177.5 775.9,1237 783.7,1248 792.1,1248 
		782.9,1235 790,1175.7 703.8,1065.5 816.9,976.6 818,975.6 825.7,912 	"/>
	<polygon class="st43" points="830.3,912.4 826.7,973.6 717.9,1070.3 715.4,1072.6 810.8,1180.5 807.3,1240.2 813.3,1248 
		822.2,1248 814.1,1237.8 817.6,1178.2 724.8,1073.5 833.2,976.9 837,912.8 	"/>
	<polygon class="st43" points="856.4,1248 845.5,1235.7 845.3,1176 746.2,1077.3 847.5,975.1 848.5,975.6 848.3,913 841.6,913 
		841.8,972.8 736.8,1077.7 838.6,1177.9 838.8,1238.5 847,1248 	"/>
	<polygon class="st43" points="887.3,1248 876.8,1237.7 873,1178 768.1,1085.7 862.8,977.4 863.7,976.3 859.6,912.3 852.9,912.7 
		856.9,973.9 760.9,1083.4 758.7,1085.9 866.5,1181.2 870.4,1240.9 877.3,1248 	"/>
	<polygon class="st43" points="923.7,1248 908.1,1234.7 900.8,1176.8 900.6,1175 790.2,1089.5 878.1,975.7 878.9,974.6 870.8,910.9 
		864.2,911.8 871.9,972.6 780.8,1090.5 894.3,1178.2 901.6,1235.3 901.8,1238.3 912.9,1248 	"/>
	<polygon class="st43" points="964,1248 939.1,1229.8 928,1171.1 812.5,1092.3 893.2,973.3 893.9,972 881.9,909 875.3,910.2 
		886.9,970.5 803.2,1093.7 921.9,1174.2 933,1233.7 952.2,1248 	"/>
	<polygon class="st43" points="1009.7,1248 969.7,1222.9 955.4,1166.4 955,1164.6 834.9,1093.4 908.1,969.7 908.8,968.4 
		892.9,906.3 886.4,907.9 901.7,967.4 827.5,1092.7 825.8,1095.5 949.2,1168.6 963.6,1224.3 963.9,1227.3 996.6,1248 	"/>
	<polygon class="st43" points="1063.1,1248 999.8,1214.2 981.7,1157.4 857.4,1093.5 923.4,964.1 903.7,903 897.3,905 916.2,963.4 
		849.9,1093 848.4,1096 976.1,1162 994.3,1218.9 1048.5,1248 	"/>
	<polygon class="st44" points="1113.9,1248 1121.4,1248 1122.7,1244.2 1029.3,1202.9 1007.7,1147.6 879.8,1091.8 937.2,959.9 
		937.7,958.6 914.2,898.9 908,901.4 930.5,958.4 871,1095 1002.5,1152.2 1024.1,1207 1113.9,1247.7 	"/>
	<polygon class="st45" points="1139.2,1248 1146.3,1248 1153.8,1226 1058.2,1190.5 1033.2,1136.7 902.1,1088.9 951.2,953.8 
		951.6,952.4 924.5,894.3 918.5,897.1 944.4,952.7 894.7,1089.5 893.5,1092.7 1028.4,1141.6 1053.3,1195 1145.3,1230 	"/>
	<polygon class="st45" points="1164.9,1248 1171.9,1248 1183.8,1205.9 1086.2,1176.4 1058,1124.2 924.2,1084.6 964.8,946.7 
		965.2,945.3 934.5,889 928.7,892.2 958,946.1 915.9,1088.9 1053.5,1129.4 1081.6,1181.2 1175.5,1210.4 	"/>
	<polygon class="st45" points="1191.4,1248 1198.2,1248 1212.5,1184 1113.2,1160.6 1081.9,1110.3 945.9,1079 977.9,938.8 
		978.3,937.4 944.2,883.1 938.5,886.6 971.1,938.6 937.9,1083.8 1077.8,1115.8 1109.1,1165.6 1204.5,1189 	"/>
	<polygon class="st45" points="1218.9,1248 1225.6,1248 1239.7,1160.3 1139.3,1143.1 1105,1094.9 967.3,1072 990.6,930.2 
		990.8,928.8 953.4,876.6 948,880.5 983.8,930.4 959.6,1077.3 1101.2,1100.6 1135.5,1148.4 1232.1,1165.9 	"/>
	<polygon class="st45" points="1248.9,1232.9 1260.2,1248 1268.8,1248 1255.8,1230.8 1265.5,1134.2 1164.2,1123.6 1127,1077.8 
		988.2,1063.6 1002.7,920.7 1002.8,919.3 962.2,869.6 957.1,873.8 995.9,921.3 980.8,1069.5 1123.6,1084 1160.8,1129.6 
		1258.2,1139.4 1249,1229.9 	"/>
	<polygon class="st45" points="1315.7,1248 1324.8,1248 1285.9,1204.4 1289.6,1107.4 1187.9,1103.1 1148.9,1060.6 1148,1059.5 
		1008.5,1054.1 1014.2,909.1 970.6,862 965.7,866.5 1007.4,911.6 1001.7,1057.1 1001.6,1060.5 1144.9,1066 1184,1108.2 
		1184.9,1109.2 1282.7,1113.7 1279.1,1206.9 	"/>
	<polygon class="st45" points="1387.8,1248 1314.2,1176.2 1312.1,1082.5 1312.1,1078.7 1210.3,1080.9 1167.7,1040.1 1028.2,1043.3 
		1024.9,898.3 978.5,853.9 973.9,858.8 1018.3,901.1 1021.6,1046.7 1021.7,1050.1 1165.1,1046.7 1207.7,1087.4 1305.5,1085.1 
		1307.6,1179.1 1378.2,1248 	"/>
	<polygon class="st45" points="1431.8,1248 1438.5,1248 1436.8,1227.2 1340.9,1145.4 1332.7,1049.1 1231.3,1057.6 1186.2,1019.5 
		1047.2,1031.3 1034.9,886.8 985.9,845.4 981.6,850.5 1028.5,890.1 1041.1,1038.5 1184.1,1026.3 1229.1,1064.3 1326.6,1055.9 
		1334.4,1147.9 1430.4,1230.5 	"/>
	<polygon class="st45" points="1474.8,1248 1466.5,1190.9 1466.3,1188.7 1365.5,1113.5 1352,1021.3 1351.4,1017.9 1250.8,1032.9 
		1203.5,997.7 1065.4,1018.1 1044.5,876 1044.2,874.6 992.7,836.4 988.8,841.8 1038,878.4 1059.3,1022.4 1059.8,1025.7 
		1201.7,1004.7 1249,1039.8 1345.8,1025.4 1359.1,1115.4 1359.3,1116.8 1460.1,1193.3 1468,1248 	"/>
	<polygon class="st45" points="1513.8,1248 1493.5,1150.2 1388.2,1080.9 1368.3,986.3 1268.7,1007.3 1219.3,975.1 1082.8,1003.9 
		1052.8,862 999,827 995.4,832.6 1046.8,866.1 1077,1008.5 1077.6,1011.8 1218,982.1 1267.4,1014.2 1363.1,993.8 1382.2,1084.2 
		1487.5,1154.3 1507,1248 	"/>
	<polygon class="st46" points="1555.6,1248 1518.5,1111.6 1518.1,1108.9 1408.8,1046.4 1384,956.5 1383.1,953.2 1285,980.3 
		1233.8,951.3 1099.3,988.6 1060.9,850.2 1060.6,848.9 1004.7,817.2 1001.4,823 1054.9,853.3 1093.7,993.6 1094.6,996.8 
		1232.9,958.5 1284.1,987.4 1378.4,961.2 1402.7,1048.9 1403.1,1050.2 1512.4,1114.7 1548.6,1248 	"/>
	<path class="st46" d="M1765.6,1248l-53.2-32.4l-1.3,1.7c-18.3,5-74.8,19.8-114.4,30.7h27.6c34.2-9.3,71.7-18.4,87.3-22.6l39.9,22.6
		H1765.6z"/>
</g>
</svg>
