<?xml version="1.0" encoding="utf-8"?>
<!-- Generator: Adobe Illustrator 18.0.0, SVG Export Plug-In . SVG Version: 6.00 Build 0)  -->
<!DOCTYPE svg PUBLIC "-//W3C//DTD SVG 1.1//EN" "http://www.w3.org/Graphics/SVG/1.1/DTD/svg11.dtd">
<svg version="1.1" xmlns="http://www.w3.org/2000/svg" xmlns:xlink="http://www.w3.org/1999/xlink" x="0px" y="0px"
	 viewBox="0 0 1900 1250" style="enable-background:new 0 0 1900 1250;" xml:space="preserve">
<style type="text/css">
	.st0{fill:#54868A;}
	.st1{fill:#BB7E6F;}
	.st2{fill:#F4EFEB;}
	.st3{fill:#CEBC72;}
	.st4{fill:#4C4C4C;}
	.st5{fill:#7C7C7C;}
	.st6{fill:#999999;}
	.st7{fill:#7C4242;}
	.st8{fill:#822825;}
	.st9{display:none;}
	.st10{opacity:0.4;}
	.st11{fill:#9A9A9B;stroke:#4C4C4C;stroke-miterlimit:10;}
	.st12{opacity:0.8;fill:#9A9A9B;stroke:#4C4C4C;stroke-miterlimit:10;}
	.st13{opacity:0.6;fill:#9A9A9B;stroke:#4C4C4C;stroke-miterlimit:10;}
	.st14{opacity:0.5;fill:#9A9A9B;stroke:#4C4C4C;stroke-miterlimit:10;}
	.st15{opacity:0.4;fill:#9A9A9B;stroke:#4C4C4C;stroke-miterlimit:10;}
	.st16{display:inline;fill:#54868A;}
	.st17{display:inline;fill:#F4EFEB;}
	.st18{opacity:0.7;fill:#4C4C4C;}
	.st19{opacity:0.6;fill:#4C4C4C;}
	.st20{opacity:0.4;fill:#4C4C4C;}
</style>
<g id="bg">
	<rect class="st2" width="1900" height="1250"/>
</g>
<g id="guides" class="st9">
</g>
<g id="shapes">
	<g class="st10">
		<path class="st11" d="M1110.7,980.8L1062.1,840l-55.2-26.9l2.9-6l57.7,28.1l0.4,1.3l46.9,135.8l131.9-45.6l52.9,25.8l96.2-33.3
			l31.4,91l112.9,54.9l0.4,1.3l48.8,141.1c19.4-6.2,123.9-39.9,149.9-48.8l1.3-0.4l1.2,0.6l158.7,77.2l-2.9,6l-157.4-76.6
			c-30.9,10.5-150.6,49.1-151.8,49.4l-3.1,1l-50.4-146l-112.9-55l-30.1-87.3l-92.5,32l-52.9-25.8L1110.7,980.8z"/>
	</g>
	<polygon class="st12" points="603,688.4 515.7,567.8 399.5,651.8 341.3,642.5 262.1,699.9 207.9,625.1 84,605.3 -2.5,485.8 
		-2.5,497.2 79.4,610.4 80.2,611.5 204.1,631.3 260.6,709.3 342.9,649.5 401.2,658.8 514.2,577.1 598.4,693.5 599.2,694.6 
		662.5,704.8 663.6,698.2 	"/>
	<polygon class="st12" points="600.9,703.3 506.3,588.4 395.5,679.4 338.2,673.9 336.8,673.7 261.3,735.9 203.5,665.7 202.6,664.6 
		77.7,652.5 -2.5,555 -2.5,565.6 73.4,657.8 74.3,658.9 199.2,671 260.4,745.3 338.9,680.6 397.6,686.3 505.4,597.8 596.6,708.7 
		597.5,709.7 661.3,716 661.9,709.4 	"/>
	<polygon class="st12" points="599.7,718.4 500.4,611.9 498.2,609.5 393.2,707.2 335.7,705.2 334.3,705.2 262.8,771.9 200.7,705.4 
		199.8,704.4 74.3,700 -2.5,617.6 -2.5,627.4 70.4,705.6 71.4,706.6 196.8,711 260.1,778.9 262.4,781.4 336.8,711.9 395.7,713.9 
		497.8,618.9 595.7,724 596.7,725 660.7,727.3 661,720.6 	"/>
	<polygon class="st12" points="660.8,731.9 599.4,733.5 493.8,633.4 491.4,631.1 392.6,735 335.1,736.7 333.7,736.7 266.4,807.8 
		199.4,744.2 73.8,747.7 -3.5,674.4 -3.5,683.6 70.2,753.4 71.3,754.4 196.8,751 266.7,817.2 336.7,743.3 394.2,741.7 395.6,741.6 
		491.6,640.5 596.8,740.2 660.9,738.6 	"/>
	<polygon class="st12" points="661.2,743.2 600.1,748.6 488.5,655.2 485.9,653 393.8,762.9 335.1,768.2 272.4,843.3 201.5,784.1 
		76.6,795.2 -3.5,728.1 -3.5,736.8 74.4,802.1 199.4,790.9 273.2,852.7 338.4,774.6 397.1,769.3 486.7,662.4 597.9,755.4 
		661.8,749.9 	"/>
	<path class="st13" d="M690.2,828.2L638.9,862l-145.9-29.8l-28.8,140.5l-48,31.7l-1.2,0.8l-19.5,95.9l-90.5-18.4l-104.7,69.2
		l-151.4-31l-0.7,3.9c-0.2,1-17.7,78.8-28.2,126.8H27c9.3-43,23.8-107.2,27.2-122.1l146.4,29.6l1.4,0.1l104.7-69.3l94.3,19.2
		l20.3-99.7l48-31.8l1.2-0.8l28-136.7L639,868.8l1.4,0.3l53.5-35.3L690.2,828.2z"/>
	<path class="st13" d="M696.6,837.5l-49.1,36.9l-144.2-20.3l-3.3-0.4l-20,142l-45.9,34.7l-1.1,0.8l-13.5,96.9l-91.5-12.8
		l-100.2,75.6L78,1169.7l-3.2-0.4l-0.5,4.2c-0.1,0.7-6.1,38.1-12.3,77.1h6.8c5.1-32,10-63.1,11.6-72.8l147.9,20.4l1.4,0l100.2-75.7
		l95.3,13.3l14.1-100.8l45.9-34.7l1.1-0.8l19.5-138.1l142.2,20l1.4,0.2l51.3-38.6L696.6,837.5z"/>
	<path class="st13" d="M703.5,846.4l-46.7,39.9L511.6,875l-3.3-0.2l-11.2,142.9l-43.7,37.5l-1.1,0.9l-7.5,97.5l-92.1-7.1l-95.3,81.6
		l-150.8-11.8l-3.3-0.2l-0.3,4.2c0,0.4-1.2,12.3-2.9,30.3h6.7c1.1-12,2.1-21.8,2.5-26.4l148.9,11.2l1.4-0.1l95.3-81.7l95.9,7.4
		l7.8-101.5l43.7-37.5l1.1-0.9l10.9-139.1l143.2,11.1l1.4,0.1l48.8-41.7L703.5,846.4z"/>
	<polygon class="st13" points="710.9,854.9 666.8,897.6 517.9,895.2 515.6,1038.6 473.3,1079.7 471.8,1177.5 380.9,1176.1 
		379.5,1176.8 303.2,1251.5 312.8,1251.5 382.2,1183.5 478.4,1184.6 479.9,1082.7 522.2,1041.6 524.5,902.1 668.1,904.3 
		669.4,904.3 715.6,859.7 	"/>
	<polygon class="st14" points="718.9,862.9 677.5,908.3 528.7,915.1 535.3,1058.4 495.6,1101.9 500.2,1199.7 409.4,1203.9 
		408,1204.7 366,1251.5 375.1,1251.5 411.1,1211.3 507.2,1206.4 502.4,1104.6 542.1,1061 535.7,921.5 679.2,914.9 680.6,914.8 
		723.8,867.5 	"/>
	<polygon class="st14" points="727.3,870.5 688.8,918.2 544.1,933.9 540.7,934.3 556.2,1076.9 519.3,1122.8 529.9,1220.1 
		439.5,1229.9 438.1,1231 423.2,1250.5 431.8,1250.5 441.6,1237.4 537.3,1226.4 526.2,1125.1 563.1,1079 548.1,940.3 690.9,924.8 
		692.3,924.6 732.5,874.7 	"/>
	<polygon class="st14" points="736.2,877.4 700.7,927.5 557.2,952.1 554,952.7 578.2,1094 545,1141 544.2,1142.2 560.8,1239.5 
		502.3,1250.5 541.5,1250.5 568.5,1244.9 551.2,1144.2 584.4,1097 585.2,1095.7 561.7,958.2 703.2,933.9 704.6,933.6 741.7,881.3 	
		"/>
	<polygon class="st14" points="745.5,883.8 713.2,936 568.3,970.2 601.2,1109.8 571,1158.8 570.2,1160.7 591.6,1251.5 598.4,1251.5 
		577.4,1161.8 607.6,1112.5 608.3,1111.1 576.3,975.3 717.4,941.9 751.2,887.4 	"/>
	<polygon class="st14" points="755.2,889.6 726.2,943.7 586.8,985.9 583.6,986.8 625.1,1124.1 597.3,1176.9 619.7,1251.5 
		626.7,1251.5 604.5,1177.5 631.7,1126.4 632.3,1125 591.9,991.4 729.4,949.7 730.7,949.3 761.1,892.8 	"/>
	<polygon class="st14" points="775.6,899.4 753.5,956.7 617.3,1017 675.4,1148.1 654.3,1203.9 675.1,1251.5 682.4,1251.5 
		661.5,1203.7 682.2,1149.6 682.6,1148.1 626.1,1020.5 757.4,962.3 758.7,961.7 781.8,901.8 	"/>
	<polygon class="st14" points="765.2,894.8 739.6,950.6 600,1002.5 649.9,1136.9 625.4,1191.2 647.6,1251.5 654.7,1251.5 
		632.6,1191.5 657.1,1137.5 608.6,1006.6 744.5,956 771.3,897.7 	"/>
	<polygon class="st14" points="786.2,903.3 767.6,961.8 638.4,1029 635.4,1030.6 701.6,1157.8 683.9,1214.7 702.6,1251.5 
		710.2,1251.5 691.1,1214.1 708.8,1157.5 644.5,1033.6 771.9,967.2 773.2,966.5 792.5,905.4 	"/>
	<polygon class="st14" points="797,906.6 782.1,966.1 654.4,1042.9 728.3,1165.8 714.1,1223.9 729.6,1250.5 737.4,1250.5 
		721.3,1222.8 735.5,1165.2 663.6,1045.4 786.7,971.3 787.9,970.5 803.5,908.3 	"/>
	<polygon class="st14" points="744.8,1231 757.6,1250.5 765.8,1250.5 751.9,1229.5 762.6,1171.1 683.4,1056 801.7,974.4 
		802.9,973.5 814.6,910.4 808,909.2 796.8,969.5 674.1,1054 755.5,1172.6 	"/>
	<polygon class="st15" points="775.9,1236 787.5,1251.5 796,1251.5 782.9,1234.1 790,1175.2 703.8,1065.3 816.9,976.5 818,975.6 
		825.7,911.9 819.1,911.1 811.7,972 697.1,1061.9 694.5,1064 783,1177.2 	"/>
	<polygon class="st15" points="807.3,1239.3 817.5,1251.5 826.5,1251.5 814.1,1236.9 817.6,1177.7 724.8,1073.3 833.2,976.8 
		837,912.8 830.3,912.3 826.7,973.6 717.9,1070.3 715.4,1072.6 810.8,1180.1 	"/>
	<polygon class="st15" points="838.6,1179.9 838.8,1239.8 847.7,1249.5 857.1,1249.5 845.5,1237 845.3,1177.6 746.2,1079.1 
		847.5,977 848.5,976.8 848.3,913.5 841.6,913.5 841.8,974 736.8,1079.3 	"/>
	<polygon class="st15" points="870.4,1240 882.7,1251.5 892.8,1251.5 876.8,1236.8 873,1177.6 768.1,1085.4 862.8,977.3 
		863.7,976.2 859.6,912.2 852.9,912.7 856.9,973.9 760.9,1083.4 758.7,1085.9 866.5,1180.8 	"/>
	<polygon class="st15" points="921.9,1174.2 933,1232.6 963.2,1253.5 975.1,1253.5 939.1,1228.6 928,1170.5 812.5,1092 893.2,973.1 
		893.9,971.9 881.9,908.9 875.3,910.2 886.9,970.4 803.2,1093.7 	"/>
	<polygon class="st15" points="894.3,1178.2 901.6,1235.3 901.8,1237.6 917.4,1250.5 928.3,1250.5 908.1,1234 900.8,1176.4 
		900.6,1174.8 790.2,1089.4 878.1,975.7 878.9,974.6 870.8,910.9 864.2,911.8 871.9,972.6 780.8,1090.5 	"/>
	<polygon class="st15" points="963.6,1224.3 963.9,1226.6 1011.3,1255.5 1024.5,1255.5 969.7,1222.2 955.4,1166 955,1164.4 
		834.9,1093.3 908.1,969.6 908.8,968.4 892.9,906.3 886.4,907.9 901.7,967.3 827.5,1092.7 825.8,1095.5 949.2,1168.6 	"/>
	<polygon class="st15" points="994.3,1218.2 1055.8,1250.5 1070.5,1250.5 999.8,1213.5 981.7,1157 857.4,1093.3 923.4,964 
		903.7,903 897.3,905 916.2,963.4 849.9,1093 848.4,1096 976.2,1161.7 	"/>
	<polygon class="st15" points="1002.5,1152.2 1024.1,1207 1113.9,1246.8 1112.2,1251.5 1119.5,1251.5 1122.7,1243.3 1029.3,1202.4 
		1007.7,1147.4 879.8,1091.7 937.2,959.9 937.7,958.6 914.2,898.9 908,901.4 930.5,958.4 871,1095 	"/>
	<polygon class="st15" points="1053.3,1195 1145.3,1229.1 1136.7,1253.5 1143.8,1253.5 1153.8,1225.1 1058.2,1190 1033.2,1136.5 
		902.1,1088.8 951.2,953.7 951.6,952.4 924.5,894.3 918.5,897.1 944.4,952.7 894.7,1089.5 893.5,1092.7 1028.4,1141.6 	"/>
	<polygon class="st15" points="1053.5,1129.4 1081.6,1181.2 1175.5,1209.5 1163.4,1251.5 1170.3,1251.5 1183.8,1205 1086.2,1175.9 
		1058,1124 924.2,1084.5 964.8,946.7 965.2,945.3 934.5,889 928.7,892.2 958,946.1 915.9,1088.9 	"/>
	<polygon class="st15" points="1077.8,1115.8 1109.1,1165.6 1204.5,1188.2 1189.5,1254.5 1196.4,1254.5 1212.5,1183.2 
		1113.2,1160.2 1081.9,1110.1 945.9,1078.9 977.9,938.8 978.3,937.4 944.2,883.1 938.5,886.6 971.1,938.6 937.9,1083.8 	"/>
	<polygon class="st15" points="1101.2,1100.6 1135.5,1148.4 1232.1,1164.8 1217.5,1254.5 1224.2,1254.5 1239.7,1159.3 
		1139.3,1142.6 1105,1094.6 967.3,1071.9 990.6,930.1 990.8,928.7 953.4,876.6 948,880.5 983.8,930.4 959.6,1077.3 	"/>
	<polygon class="st15" points="1001.6,1060.5 1144.9,1066 1184,1108.2 1184.9,1109.2 1282.7,1113 1279.1,1206.2 1319.2,1250.5 
		1328.3,1250.5 1285.9,1203.7 1289.6,1107 1187.9,1102.9 1148.9,1060.5 1148,1059.5 1008.5,1054.1 1014.2,909.1 970.6,862 
		965.7,866.5 1007.4,911.6 1001.7,1057.1 	"/>
	<polygon class="st15" points="1123.6,1084 1160.8,1129.6 1258.2,1139.4 1249,1229.8 1248.9,1232.1 1263.1,1250.5 1271.7,1250.5 
		1255.8,1230.1 1265.5,1133.9 1164.2,1123.5 1127,1077.7 988.2,1063.6 1002.7,920.6 1002.8,919.3 962.2,869.6 957.1,873.8 
		995.9,921.3 980.8,1069.5 	"/>
	<polygon class="st15" points="1307.6,1178.1 1383.6,1251.5 1393.3,1251.5 1314.2,1175.2 1312.1,1082 1312.1,1078.5 1210.3,1080.8 
		1167.7,1040 1028.2,1043.3 1024.9,898.2 978.5,853.9 973.9,858.8 1018.3,901.1 1021.6,1046.7 1021.7,1050.1 1165.1,1046.7 
		1207.7,1087.4 1305.5,1085.5 	"/>
	<polygon class="st15" points="1334.4,1147.9 1430.4,1229.6 1432.2,1251.5 1438.9,1251.5 1436.8,1226.3 1340.9,1144.9 
		1332.7,1048.8 1231.3,1057.5 1186.2,1019.4 1047.2,1031.3 1034.9,886.7 985.9,845.4 981.6,850.5 1028.5,890.1 1041.1,1038.5 
		1184.1,1026.3 1229.1,1064.3 1326.6,1055.9 	"/>
	<polygon class="st15" points="1382.2,1084.2 1487.5,1152.9 1508.1,1250.5 1514.9,1250.5 1493.5,1148.8 1388.2,1080.2 1368.3,986 
		1268.7,1007.1 1219.3,975 1082.8,1003.9 1052.8,862 999,827 995.4,832.6 1046.8,866.1 1077,1008.5 1077.6,1011.8 1218,982.1 
		1267.4,1014.2 1363.1,993.8 	"/>
	<polygon class="st15" points="1345.8,1025.4 1359.1,1115.4 1359.3,1116.8 1460.1,1192.6 1468.6,1250.5 1475.3,1250.5 
		1466.5,1190.2 1466.3,1188.4 1365.5,1113.3 1352,1021.3 1351.4,1017.9 1250.8,1032.8 1203.5,997.7 1065.4,1018.1 1044.5,876 
		1044.2,874.6 992.7,836.4 988.8,841.8 1038,878.4 1059.3,1022.4 1059.8,1025.7 1201.7,1004.7 1249,1039.8 	"/>
	<g class="st10">
		<path class="st11" d="M1601.4,1249.5c38.5-10,90.9-23.4,110-28.5l50.5,28.5h13.6l-63.2-36.2l-1.3,0.6
			c-22.1,6.1-99.9,25.6-136.5,35.6H1601.4z"/>
		<polygon class="st11" points="1550.3,1249.5 1557.2,1249.5 1518.5,1109.3 1518.1,1107.8 1408.8,1045.9 1384,956.3 1383.1,953 
			1285,980.2 1233.8,951.3 1099.3,988.6 1060.9,850.2 1060.6,848.9 1004.7,817.2 1001.4,823 1054.9,853.3 1093.7,993.6 
			1094.6,996.8 1232.9,958.5 1284.1,987.4 1378.4,961.2 1402.7,1048.9 1403.1,1050.2 1512.4,1112.5 		"/>
	</g>
</g>
<g id="white_border">
</g>
<g id="Layer_8">
	<path class="st11" d="M635.7,604L598.1,460l-138.8,36.1l-50.9-29.8L313.8,491l-23-88l-0.3-1.4l-108.3-63.4l-38-146.4l-0.8-3.2
		l-3.8,0.7c-1.1,0.3-98.1,23.3-142.1,34.1v6.9c38-9.6,123.1-29.5,140.4-33.7l37.8,144.6l0.5,1.4l108.3,63.4l24.4,93.1l98.5-25.7
		l50.9,29.8l134.9-35.1l36.3,139l0.3,1.4l55.2,32.5l3.4-5.8L635.7,604z"/>
	<path class="st11" d="M628.2,617.2l-46.4-141.5l-136.3,44.6l-51.4-25.9l-1.3-0.6L300,524.3l-28.8-87.8l-112-56.5l-48-146.9l-3.8,1
		c-0.9,0.3-64,19.2-110,33.5v7c41-12.6,95.4-29.1,108.8-33.2l47.1,143.3l112.1,56.5l30.1,91.5l96.7-31.8l51.4,25.9l1.3,0.6
		l132.5-43.3l44.8,136.4l0.4,1.3l57.2,29l3-6L628.2,617.2z"/>
	<path class="st11" d="M621.6,630.8l-55.1-138.4l-133.3,52.9l-54.2-23.2l-90.9,36.3l-34.2-85.8l-115.2-49.5L83,282.5l-1.2-3
		l-3.7,1.1c-0.7,0.3-41.7,15.2-80.7,30v7.1c34-12.8,69.6-25.9,79.9-29.8l56,140.2l115.4,49.5l35.7,89.4l94.5-37.7l54.2,23.2
		l129.6-51.5l53.1,133.4l0.5,1.3l58.9,25.4l2.7-6.1L621.6,630.8z"/>
	<path class="st11" d="M615.9,644.8l-62.1-131.7l-1.4-3l-129.7,61.1l-55.5-19.9l-88.5,41.8l-39.4-83.5l-118.1-42.3L56.8,330.4
		l-1.4-3l-3.6,1.3c-0.5,0.2-25.3,11-54.3,24v7.3c24-10.9,46.4-20.5,54-23.9l63.9,135.2l0.7,1.2L234.4,515l41.1,87.1l92-43.5
		l55.5,19.9L549.2,519l61.3,129.9l0.6,1.2l60.3,21.7l2.3-6.3L615.9,644.8z"/>
	<path class="st11" d="M611.1,659.1l-71.7-130.5l-125.7,69l-55.4-16l-1.3-0.4l-85.7,47.2l-44.5-80.9l-120.5-34.9L32,377l-3.5,1.5
		c-0.4,0.2-14,6.7-31,15.9v7.5c14-7.4,26.1-13.3,31.2-16l72.8,132.2l120.6,34.9l46.4,84.4l89.2-49.1l56.7,16.4l122.3-67.1l69.8,127
		l61.5,18l1.9-6.4L611.1,659.1z"/>
	<path class="st12" d="M606.1,673.6l-79.7-125.8l-121.1,76.6l-57.6-12.8L265.1,664l-49.4-78L93.3,558.6L10.7,428l-3.4,1.7
		c-0.2,0.1-4.8,2.4-10.8,6.1v7.8c4-2.9,9.1-5.1,11.4-6.5l80.9,127.5l122.5,27.4l51.6,81.3l86-54.5l57.6,12.8l117.8-74.5l76.9,121.3
		l0.7,1.2l62.5,14.1l1.5-6.5L606.1,673.6z"/>
	<polygon class="st12" points="662.3,754.5 601.7,763.6 484.5,677.3 481.8,675.3 396.7,790.7 338.4,799.6 280.4,878.4 206.1,823.6 
		81.3,842.5 -4.5,779.8 -4.5,788.1 78.5,848.7 80,849.6 204.2,830.7 281.8,887.7 342.1,805.8 400.4,796.9 483.2,684.6 599.9,770.6 
		663.3,761.1 	"/>
	<polygon class="st12" points="664.2,765.6 604.2,778.4 481.9,699.5 479.1,697.7 401.3,818.2 345,830.4 343.7,830.7 290.7,912.9 
		213.1,862.9 89.7,889.4 -3.5,829.7 -3.5,837.6 87.3,895.8 88.8,896.5 211.6,870 292.6,922.2 347.7,836.6 404,824.4 405.4,824.1 
		481.1,707 601.7,784.8 602.9,785.6 665.6,772.1 	"/>
	<polygon class="st13" points="666.7,776.6 607.6,793.2 480.7,722 477.7,720.3 407.6,845.4 350.8,861.4 303,946.8 223.7,902.3 
		222.5,901.6 101,935.6 -3.5,877.4 -3.5,885.1 98.9,942.1 100.5,942.8 221.5,908.8 305.5,955.9 355.2,867.1 412,851.1 480.3,729.4 
		605.5,799.7 606.8,800.4 668.5,783.1 	"/>
	<polygon class="st13" points="669.9,787.5 612,807.6 477.9,743 415.5,872.1 359.9,891.6 317.5,979.7 235.5,940.3 234.3,939.7 
		115.1,981.1 -4.5,923.8 -4.5,931.2 113.5,987.8 115.1,988.3 233.7,946.9 320.5,988.7 364.7,897 420.3,877.5 481,751.9 610.3,814.2 
		611.6,814.8 672.1,793.8 	"/>
	<polygon class="st13" points="674.8,798.1 618.2,821.8 480.3,765.5 426.1,898.3 373.1,920.7 371.8,921.2 334.9,1011.8 249.4,977 
		133,1025.7 -2.5,970.7 -2.5,977.9 131.8,1032.4 133.5,1032.9 249.2,984.2 338.5,1020.5 376.9,926.3 429.9,903.9 431.2,903.4 
		483.9,774.2 618.2,829 677.4,804.2 	"/>
	<path class="st13" d="M679.3,808.4l-55,27.2L486.4,789l-3.2-1.1l-45.9,135.9l-52.8,26.2l-31.2,92.7l-87.5-29.5L153.4,1069L7,1019.6
		l-1.9,3.1c-0.1,0.3-2.6,7.6-7.6,19v19.7c6-15.5,10.8-27.9,12.8-33.4l143.2,48.2l112.6-55.7l91.3,30.7l32.5-96.4l52.8-26.2
		l44.7-132.2l136.1,45.9l1.3,0.4l57.5-28.4L679.3,808.4z"/>
	<path class="st13" d="M684.5,818.5L631.2,849l-143.8-38.8L450,948.7L399,978.1l-25.4,94.5l-89.2-24l-108.7,62.6l-149.2-40.3
		l-1.7,3.1c-0.2,0.8-15.3,50.8-28.3,94.8v24.1c12-41.6,29.7-99.8,33.8-113.9l146,39.3l108.9-62.6l93,25l26.5-98.3l51.1-29.4
		l36.4-134.6l138.6,37.4l1.3,0.3l55.6-31.9L684.5,818.5z"/>
</g>
<g id="Layer_6" class="st9">
</g>
<g id="Layer_7">
</g>
<g id="text">
	<path class="st0" d="M745.3,597.6c0,1-0.1,1.9-0.3,2.9c-0.2,0.9-0.5,1.8-1,2.5c-0.5,0.7-1.2,1.3-2.1,1.7c-0.9,0.4-2.1,0.6-3.5,0.6
		c-1.7,0-3.1-0.4-4.3-1.2c-1.2-0.8-1.9-2.1-2.3-3.8l4.3-1.1c0.1,0.5,0.3,1,0.7,1.3c0.4,0.4,0.9,0.5,1.4,0.5c0.5,0,1-0.1,1.3-0.4
		c0.3-0.3,0.5-0.6,0.7-1c0.1-0.4,0.2-0.8,0.3-1.3c0-0.5,0-0.9,0-1.3l0-13.8l4.7,0L745.3,597.6z"/>
	<path class="st0" d="M754.3,594.1c0-1.7,0.3-3.3,0.9-4.7c0.6-1.4,1.4-2.6,2.4-3.6c1-1,2.3-1.7,3.7-2.3c1.4-0.5,3-0.8,4.6-0.8
		c1.7,0,3.2,0.3,4.6,0.8c1.4,0.5,2.6,1.3,3.7,2.3c1,1,1.8,2.2,2.4,3.6c0.6,1.4,0.9,3,0.9,4.7s-0.3,3.3-0.9,4.7
		c-0.6,1.4-1.4,2.6-2.4,3.6c-1,1-2.3,1.7-3.7,2.3c-1.4,0.5-3,0.8-4.6,0.8c-1.7,0-3.2-0.3-4.6-0.8c-1.4-0.5-2.6-1.3-3.7-2.3
		c-1-1-1.8-2.2-2.4-3.6C754.5,597.4,754.2,595.8,754.3,594.1z M759.2,594.1c0,1,0.2,1.9,0.5,2.8c0.3,0.8,0.8,1.6,1.3,2.2
		c0.6,0.6,1.3,1.1,2.1,1.4c0.8,0.3,1.7,0.5,2.7,0.5c1,0,1.9-0.2,2.7-0.5c0.8-0.3,1.5-0.8,2.1-1.4c0.6-0.6,1-1.3,1.4-2.2
		c0.3-0.8,0.5-1.8,0.5-2.8c0-1-0.2-1.9-0.5-2.8c-0.3-0.8-0.8-1.6-1.3-2.2c-0.6-0.6-1.3-1.1-2.1-1.4c-0.8-0.3-1.7-0.5-2.7-0.5
		c-1,0-1.9,0.2-2.7,0.5c-0.8,0.3-1.5,0.8-2.1,1.4c-0.6,0.6-1,1.3-1.4,2.2C759.3,592.2,759.2,593.1,759.2,594.1z"/>
	<path class="st0" d="M793.8,610.4l3.9,0l9.3,21.5l-5.3,0l-1.8-4.5l-8.3,0l-1.8,4.5l-5.2,0L793.8,610.4z M795.6,616.7l-2.6,6.7
		l5.2,0L795.6,616.7z"/>
	<path class="st0" d="M815.2,610.4l6.4,0l9.1,14.9l0.1,0l0-14.9l4.7,0l0,21.5l-6.2,0l-9.3-15.3l-0.1,0l0,15.3l-4.7,0L815.2,610.4z"
		/>
	<path class="st0" d="M846,610.5l6.4,0l9.1,14.9l0.1,0l0-14.9l4.7,0l0,21.5l-6.2,0l-9.3-15.3l-0.1,0l0,15.3l-4.7,0L846,610.5z"/>
	<path class="st3" d="M920.8,610.5l3.9,0L934,632l-5.3,0l-1.8-4.5l-8.3,0l-1.8,4.5l-5.2,0L920.8,610.5z M922.6,616.8l-2.6,6.7l5.2,0
		L922.6,616.8z"/>
	<path class="st0" d="M734.2,639.4l8.3,0c1.1,0,2.1,0.1,3.1,0.3c1,0.2,1.8,0.6,2.6,1.1c0.7,0.5,1.3,1.2,1.8,2
		c0.4,0.8,0.6,1.9,0.6,3.1c0,1.5-0.4,2.8-1.2,3.9c-0.8,1.1-1.9,1.7-3.5,2l5.4,9.1l-5.7,0l-4.5-8.6l-2.3,0l0,8.6l-4.7,0L734.2,639.4z
		 M738.9,648.3l2.8,0c0.4,0,0.9,0,1.3,0c0.5,0,0.9-0.1,1.3-0.3c0.4-0.2,0.7-0.4,1-0.7c0.3-0.3,0.4-0.8,0.4-1.4c0-0.5-0.1-1-0.3-1.3
		s-0.5-0.6-0.8-0.7c-0.3-0.2-0.7-0.3-1.2-0.4c-0.4-0.1-0.9-0.1-1.3-0.1l-3.1,0L738.9,648.3z"/>
	<path class="st0" d="M777.9,652.7c0,1.3-0.2,2.4-0.6,3.5c-0.4,1.1-1,2-1.7,2.8c-0.8,0.8-1.7,1.4-2.8,1.8s-2.4,0.7-3.9,0.7
		c-1.5,0-2.8-0.2-3.9-0.7c-1.1-0.4-2.1-1.1-2.8-1.9c-0.8-0.8-1.3-1.7-1.7-2.8c-0.4-1.1-0.6-2.2-0.6-3.5l0-13.2l4.7,0l0,13
		c0,0.7,0.1,1.3,0.3,1.8c0.2,0.6,0.5,1.1,0.9,1.5c0.4,0.4,0.8,0.7,1.4,1c0.5,0.2,1.1,0.4,1.7,0.4c0.6,0,1.2-0.1,1.7-0.3
		c0.5-0.2,1-0.6,1.4-1c0.4-0.4,0.7-0.9,0.9-1.5c0.2-0.6,0.3-1.2,0.3-1.8l0-13l4.7,0L777.9,652.7z"/>
	<path class="st0" d="M795.4,639.5l3.9,0l9.3,21.5l-5.3,0l-1.8-4.5l-8.3,0l-1.8,4.5l-5.2,0L795.4,639.5z M797.3,645.8l-2.6,6.7
		l5.2,0L797.3,645.8z"/>
	<path class="st0" d="M827.5,644.8c-0.4-0.5-0.9-0.8-1.6-1.1c-0.7-0.2-1.3-0.3-1.9-0.4c-0.3,0-0.7,0-1.1,0.1c-0.4,0.1-0.7,0.2-1,0.4
		c-0.3,0.2-0.6,0.4-0.8,0.7c-0.2,0.3-0.3,0.6-0.3,1c0,0.6,0.2,1.1,0.7,1.5c0.5,0.3,1.1,0.6,1.8,0.9c0.7,0.2,1.5,0.5,2.4,0.7
		s1.6,0.6,2.4,1c0.7,0.4,1.3,1,1.8,1.8c0.5,0.7,0.7,1.7,0.7,3c0,1.2-0.2,2.2-0.7,3.1c-0.4,0.9-1,1.6-1.8,2.2c-0.8,0.6-1.6,1-2.6,1.3
		c-1,0.3-2.1,0.4-3.2,0.4c-1.4,0-2.7-0.2-3.9-0.6c-1.2-0.4-2.3-1.1-3.3-2.1l3.4-3.7c0.5,0.6,1.1,1.1,1.8,1.5
		c0.7,0.4,1.5,0.5,2.3,0.5c0.4,0,0.8,0,1.2-0.1c0.4-0.1,0.7-0.2,1.1-0.4c0.3-0.2,0.6-0.4,0.8-0.7c0.2-0.3,0.3-0.6,0.3-1
		c0-0.6-0.2-1.2-0.7-1.5c-0.5-0.4-1.1-0.7-1.9-1c-0.7-0.3-1.6-0.5-2.4-0.8c-0.9-0.3-1.7-0.6-2.4-1.1c-0.7-0.4-1.4-1-1.9-1.8
		c-0.5-0.7-0.7-1.7-0.7-2.9c0-1.2,0.2-2.2,0.7-3c0.5-0.9,1.1-1.6,1.8-2.2c0.8-0.6,1.6-1,2.6-1.3c1-0.3,2-0.4,3.1-0.4
		c1.2,0,2.4,0.2,3.5,0.5c1.1,0.3,2.1,0.9,3.1,1.7L827.5,644.8z"/>
	<path class="st0" d="M839.2,650.3c0-1.7,0.3-3.3,0.9-4.7c0.6-1.4,1.4-2.6,2.4-3.6c1-1,2.3-1.7,3.7-2.3c1.4-0.5,3-0.8,4.6-0.8
		c1.7,0,3.2,0.3,4.6,0.8c1.4,0.5,2.6,1.3,3.7,2.3c1,1,1.8,2.2,2.4,3.6c0.6,1.4,0.9,3,0.9,4.7c0,1.7-0.3,3.3-0.9,4.7
		c-0.6,1.4-1.4,2.6-2.4,3.6c-1,1-2.3,1.7-3.7,2.3c-1.4,0.5-3,0.8-4.6,0.8c-1.7,0-3.2-0.3-4.6-0.8c-1.4-0.5-2.6-1.3-3.7-2.3
		c-1-1-1.8-2.2-2.4-3.6C839.5,653.6,839.2,652,839.2,650.3z M844.1,650.3c0,1,0.2,1.9,0.5,2.8c0.3,0.8,0.8,1.6,1.3,2.2
		c0.6,0.6,1.3,1.1,2.1,1.4c0.8,0.3,1.7,0.5,2.7,0.5c1,0,1.9-0.2,2.7-0.5c0.8-0.3,1.5-0.8,2.1-1.4c0.6-0.6,1-1.3,1.4-2.2
		c0.3-0.8,0.5-1.8,0.5-2.8c0-1-0.2-1.9-0.5-2.8c-0.3-0.8-0.8-1.6-1.3-2.2c-0.6-0.6-1.3-1.1-2.1-1.4c-0.8-0.3-1.7-0.5-2.7-0.5
		c-1,0-1.9,0.2-2.7,0.5c-0.8,0.3-1.5,0.8-2.1,1.4c-0.6,0.6-1,1.3-1.4,2.2C844.3,648.4,844.1,649.3,844.1,650.3z"/>
	<path class="st0" d="M871.8,639.6l4.7,0l0,17.1l8.8,0l0,4.4l-13.5,0L871.8,639.6z"/>
	<path class="st18" d="M734.1,668.5l7.1,0c1.7,0,3.3,0.2,4.9,0.6c1.5,0.4,2.9,1,4,1.9c1.1,0.9,2.1,2,2.7,3.4c0.7,1.4,1,3,1,5
		c0,1.7-0.3,3.3-1,4.6c-0.7,1.3-1.5,2.4-2.7,3.3c-1.1,0.9-2.4,1.6-3.9,2c-1.5,0.5-3,0.7-4.6,0.7l-7.7,0L734.1,668.5z M738.8,685.6
		l2.5,0c1.1,0,2.1-0.1,3-0.3c0.9-0.2,1.8-0.6,2.4-1.1c0.7-0.5,1.2-1.2,1.6-2c0.4-0.8,0.6-1.9,0.6-3.1c0-1.1-0.2-2-0.6-2.7
		c-0.4-0.8-0.9-1.4-1.6-1.9c-0.7-0.5-1.4-0.9-2.3-1.1c-0.9-0.3-1.8-0.4-2.8-0.4l-2.8,0L738.8,685.6z"/>
	<path class="st18" d="M763.4,668.6l14.6,0l0,4.4l-9.8,0l0,4l9.3,0l0,4.4l-9.3,0l0,4.4l10.4,0l0,4.4l-15.1,0L763.4,668.6z"/>
	<path class="st18" d="M798.9,673.9c-0.4-0.5-0.9-0.8-1.6-1.1c-0.7-0.2-1.3-0.3-1.9-0.4c-0.3,0-0.7,0-1.1,0.1
		c-0.4,0.1-0.7,0.2-1,0.4c-0.3,0.2-0.6,0.4-0.8,0.7c-0.2,0.3-0.3,0.6-0.3,1c0,0.6,0.2,1.1,0.7,1.5c0.5,0.3,1.1,0.6,1.8,0.9
		c0.7,0.2,1.5,0.5,2.4,0.7s1.6,0.6,2.4,1c0.7,0.4,1.3,1,1.8,1.8c0.5,0.7,0.7,1.7,0.7,3c0,1.2-0.2,2.2-0.7,3.1
		c-0.4,0.9-1,1.6-1.8,2.2c-0.8,0.6-1.6,1-2.6,1.3c-1,0.3-2.1,0.4-3.2,0.4c-1.4,0-2.7-0.2-3.9-0.6c-1.2-0.4-2.3-1.1-3.3-2.1l3.4-3.7
		c0.5,0.6,1.1,1.1,1.8,1.5c0.7,0.4,1.5,0.5,2.3,0.5c0.4,0,0.8,0,1.2-0.1c0.4-0.1,0.7-0.2,1.1-0.4c0.3-0.2,0.6-0.4,0.8-0.7
		c0.2-0.3,0.3-0.6,0.3-1c0-0.6-0.2-1.2-0.7-1.5c-0.5-0.4-1.1-0.7-1.9-1c-0.7-0.3-1.6-0.5-2.4-0.8c-0.9-0.3-1.7-0.6-2.4-1.1
		c-0.7-0.4-1.4-1-1.9-1.8c-0.5-0.7-0.7-1.7-0.7-2.9c0-1.2,0.2-2.2,0.7-3c0.5-0.9,1.1-1.6,1.8-2.2c0.8-0.6,1.6-1,2.6-1.3
		c1-0.3,2-0.4,3.1-0.4c1.2,0,2.4,0.2,3.5,0.5c1.1,0.3,2.1,0.9,3.1,1.7L798.9,673.9z"/>
	<path class="st18" d="M811.7,668.6l4.7,0l0,21.5l-4.7,0L811.7,668.6z"/>
	<path class="st18" d="M846.2,688.6c-1.4,0.7-2.9,1.3-4.4,1.6c-1.5,0.3-3.1,0.5-4.6,0.5c-1.7,0-3.2-0.3-4.6-0.8
		c-1.4-0.5-2.6-1.3-3.7-2.3c-1-1-1.8-2.2-2.4-3.6c-0.6-1.4-0.9-3-0.9-4.7s0.3-3.3,0.9-4.7c0.6-1.4,1.4-2.6,2.4-3.6
		c1-1,2.3-1.7,3.7-2.3c1.4-0.5,3-0.8,4.6-0.8c1.7,0,3.3,0.2,4.7,0.6c1.4,0.4,2.7,1.1,3.8,2.1l-3.3,3.6c-0.6-0.7-1.4-1.2-2.2-1.5
		c-0.8-0.3-1.8-0.5-3-0.5c-1,0-1.9,0.2-2.7,0.5c-0.8,0.3-1.5,0.8-2.1,1.4c-0.6,0.6-1,1.3-1.4,2.2c-0.3,0.8-0.5,1.8-0.5,2.8
		c0,1,0.2,1.9,0.5,2.8c0.3,0.8,0.8,1.6,1.3,2.2c0.6,0.6,1.3,1.1,2.1,1.4c0.8,0.3,1.7,0.5,2.7,0.5c1,0,1.9-0.1,2.7-0.3
		c0.7-0.2,1.3-0.5,1.8-0.7l0-3.5l-3.8,0l0-4.4l8.4,0L846.2,688.6z"/>
	<path class="st18" d="M856.5,668.7l6.4,0l9.1,14.9l0.1,0l0-14.9l4.7,0l0,21.5l-6.2,0l-9.3-15.3l-0.1,0l0,15.3l-4.7,0L856.5,668.7z"
		/>
	<path class="st18" d="M887.4,668.7l14.6,0l0,4.4l-9.8,0l0,4l9.3,0l0,4.4l-9.3,0l0,4.4l10.4,0l0,4.4l-15.1,0L887.4,668.7z"/>
	<path class="st18" d="M912.4,668.8l8.3,0c1.1,0,2.1,0.1,3.1,0.3c1,0.2,1.8,0.6,2.6,1.1c0.7,0.5,1.3,1.2,1.8,2s0.6,1.9,0.6,3.1
		c0,1.5-0.4,2.8-1.2,3.9c-0.8,1.1-1.9,1.7-3.5,2l5.4,9.1l-5.7,0l-4.5-8.6l-2.3,0l0,8.6l-4.7,0L912.4,668.8z M917.1,677.6l2.8,0
		c0.4,0,0.9,0,1.3,0c0.5,0,0.9-0.1,1.3-0.3c0.4-0.2,0.7-0.4,1-0.7c0.3-0.3,0.4-0.8,0.4-1.4c0-0.5-0.1-1-0.3-1.3
		c-0.2-0.3-0.5-0.6-0.8-0.7s-0.7-0.3-1.2-0.4c-0.4-0.1-0.9-0.1-1.3-0.1l-3.1,0L917.1,677.6z"/>
	<path class="st19" d="M741.2,697.6l3.9,0l9.3,21.5l-5.3,0l-1.8-4.5l-8.3,0l-1.8,4.5l-5.2,0L741.2,697.6z M743,703.9l-2.6,6.7l5.2,0
		L743,703.9z"/>
	<path class="st19" d="M762.6,697.7l8.3,0c1.1,0,2.1,0.1,3.1,0.3c1,0.2,1.8,0.6,2.6,1.1c0.7,0.5,1.3,1.2,1.8,2s0.6,1.9,0.6,3.1
		c0,1.5-0.4,2.8-1.2,3.9c-0.8,1.1-1.9,1.7-3.5,2l5.4,9.1l-5.7,0l-4.5-8.6l-2.3,0l0,8.6l-4.7,0L762.6,697.7z M767.3,706.5l2.8,0
		c0.4,0,0.9,0,1.3,0c0.5,0,0.9-0.1,1.3-0.3c0.4-0.2,0.7-0.4,1-0.7c0.3-0.3,0.4-0.8,0.4-1.4c0-0.5-0.1-1-0.3-1.3
		c-0.2-0.3-0.5-0.6-0.8-0.7c-0.3-0.2-0.7-0.3-1.2-0.4c-0.4-0.1-0.9-0.1-1.3-0.1l-3.1,0L767.3,706.5z"/>
	<path class="st19" d="M791.9,701.9l-6.1,0l0-4.2l17,0l0,4.2l-6.1,0l0,17.3l-4.7,0L791.9,701.9z"/>
	<path class="st19" d="M811.2,697.7l4.7,0l0,21.5l-4.7,0L811.2,697.7z"/>
	<path class="st19" d="M836.9,703c-0.4-0.5-0.9-0.8-1.6-1.1c-0.7-0.2-1.3-0.3-1.9-0.4c-0.3,0-0.7,0-1.1,0.1c-0.4,0.1-0.7,0.2-1,0.4
		c-0.3,0.2-0.6,0.4-0.8,0.7c-0.2,0.3-0.3,0.6-0.3,1c0,0.6,0.2,1.1,0.7,1.5c0.5,0.3,1.1,0.6,1.8,0.9c0.7,0.2,1.5,0.5,2.4,0.7
		s1.6,0.6,2.4,1c0.7,0.4,1.3,1,1.8,1.8c0.5,0.7,0.7,1.7,0.7,3c0,1.2-0.2,2.2-0.7,3.1c-0.4,0.9-1,1.6-1.8,2.2c-0.8,0.6-1.6,1-2.6,1.3
		c-1,0.3-2.1,0.4-3.2,0.4c-1.4,0-2.7-0.2-3.9-0.6c-1.2-0.4-2.3-1.1-3.3-2.1l3.4-3.7c0.5,0.6,1.1,1.1,1.8,1.5
		c0.7,0.4,1.5,0.5,2.3,0.5c0.4,0,0.8,0,1.2-0.1c0.4-0.1,0.7-0.2,1.1-0.4c0.3-0.2,0.6-0.4,0.8-0.7c0.2-0.3,0.3-0.6,0.3-1
		c0-0.6-0.2-1.2-0.7-1.5c-0.5-0.4-1.1-0.7-1.9-1c-0.7-0.3-1.6-0.5-2.4-0.8c-0.9-0.3-1.7-0.6-2.4-1.1c-0.7-0.4-1.4-1-1.9-1.8
		c-0.5-0.7-0.7-1.7-0.7-2.9c0-1.2,0.2-2.2,0.7-3c0.5-0.9,1.1-1.6,1.8-2.2c0.8-0.6,1.6-1,2.6-1.3c1-0.3,2-0.4,3.1-0.4
		c1.2,0,2.4,0.2,3.5,0.5c1.1,0.3,2.1,0.9,3.1,1.7L836.9,703z"/>
	<path class="st19" d="M853.9,702l-6.1,0l0-4.2l17,0l0,4.2l-6.1,0l0,17.3l-4.7,0L853.9,702z"/>
	<path class="st20" d="M731.9,726.7l5.4,0l5.3,14.1l0.1,0l5.4-14.1l5.1,0l-8.9,21.4l-3.8,0L731.9,726.7z"/>
	<path class="st20" d="M761.4,726.8l4.7,0l0,21.5l-4.7,0L761.4,726.8z"/>
	<path class="st20" d="M787.1,732c-0.4-0.5-0.9-0.8-1.6-1.1c-0.7-0.2-1.3-0.3-1.9-0.4c-0.3,0-0.7,0-1.1,0.1c-0.4,0.1-0.7,0.2-1,0.4
		c-0.3,0.2-0.6,0.4-0.8,0.7c-0.2,0.3-0.3,0.6-0.3,1c0,0.6,0.2,1.1,0.7,1.5c0.5,0.3,1.1,0.6,1.8,0.9c0.7,0.2,1.5,0.5,2.4,0.7
		s1.6,0.6,2.4,1c0.7,0.4,1.3,1,1.8,1.8c0.5,0.7,0.7,1.7,0.7,3c0,1.2-0.2,2.2-0.7,3.1c-0.4,0.9-1,1.6-1.8,2.2s-1.6,1-2.6,1.3
		c-1,0.3-2.1,0.4-3.2,0.4c-1.4,0-2.7-0.2-3.9-0.6c-1.2-0.4-2.3-1.1-3.3-2.1l3.4-3.7c0.5,0.6,1.1,1.1,1.8,1.5
		c0.7,0.4,1.5,0.5,2.3,0.5c0.4,0,0.8,0,1.2-0.1c0.4-0.1,0.7-0.2,1.1-0.4c0.3-0.2,0.6-0.4,0.8-0.7s0.3-0.6,0.3-1
		c0-0.6-0.2-1.2-0.7-1.5c-0.5-0.4-1.1-0.7-1.9-1c-0.7-0.3-1.6-0.5-2.4-0.8c-0.9-0.3-1.7-0.6-2.4-1.1c-0.7-0.4-1.4-1-1.9-1.8
		c-0.5-0.7-0.7-1.7-0.7-2.9c0-1.2,0.2-2.2,0.7-3c0.5-0.9,1.1-1.6,1.8-2.2c0.8-0.6,1.6-1,2.6-1.3c1-0.3,2-0.4,3.1-0.4
		c1.2,0,2.4,0.2,3.5,0.5c1.1,0.3,2.1,0.9,3.1,1.7L787.1,732z"/>
	<path class="st20" d="M818,740c0,1.3-0.2,2.4-0.6,3.5c-0.4,1.1-1,2-1.7,2.8c-0.8,0.8-1.7,1.4-2.8,1.8c-1.1,0.4-2.4,0.7-3.9,0.7
		c-1.5,0-2.8-0.2-3.9-0.7c-1.1-0.4-2.1-1.1-2.8-1.9c-0.8-0.8-1.3-1.7-1.7-2.8c-0.4-1.1-0.6-2.2-0.6-3.5l0-13.2l4.7,0l0,13
		c0,0.7,0.1,1.3,0.3,1.8c0.2,0.6,0.5,1.1,0.9,1.5c0.4,0.4,0.8,0.7,1.4,1c0.5,0.2,1.1,0.4,1.7,0.4c0.6,0,1.2-0.1,1.7-0.3
		c0.5-0.2,1-0.6,1.4-1c0.4-0.4,0.7-0.9,0.9-1.5c0.2-0.6,0.3-1.2,0.3-1.8l0-13l4.7,0L818,740z"/>
	<path class="st20" d="M835.5,726.8l3.9,0l9.3,21.5l-5.3,0l-1.8-4.5l-8.3,0l-1.8,4.5l-5.2,0L835.5,726.8z M837.3,733.1l-2.6,6.7
		l5.2,0L837.3,733.1z"/>
	<path class="st20" d="M857.2,726.9l4.7,0l0,17.1l8.8,0l0,4.4l-13.5,0L857.2,726.9z"/>
	<path class="st20" d="M748,786.4c-0.5-0.6-1-1-1.7-1.3c-0.7-0.3-1.5-0.5-2.3-0.5c-0.9,0-1.7,0.2-2.5,0.5c-0.8,0.3-1.4,0.8-2,1.4
		c-0.6,0.6-1,1.3-1.3,2.2c-0.3,0.8-0.5,1.8-0.5,2.8c0,1,0.2,1.9,0.5,2.8c0.3,0.8,0.7,1.6,1.3,2.2c0.5,0.6,1.2,1.1,1.9,1.4
		c0.7,0.3,1.5,0.5,2.4,0.5c1,0,1.8-0.2,2.6-0.6c0.7-0.4,1.4-1,1.9-1.7l3.9,2.9c-0.9,1.3-2.1,2.2-3.5,2.8c-1.4,0.6-2.8,0.9-4.3,0.9
		c-1.7,0-3.2-0.3-4.6-0.8c-1.4-0.5-2.6-1.3-3.7-2.3c-1-1-1.8-2.2-2.4-3.6c-0.6-1.4-0.9-3-0.9-4.7s0.3-3.3,0.9-4.7
		c0.6-1.4,1.4-2.6,2.4-3.6c1-1,2.3-1.7,3.7-2.3c1.4-0.5,3-0.8,4.6-0.8c0.6,0,1.2,0.1,1.9,0.2c0.7,0.1,1.3,0.3,1.9,0.5
		c0.6,0.2,1.2,0.6,1.8,1c0.6,0.4,1.1,0.9,1.6,1.5L748,786.4z"/>
	<path class="st20" d="M759.7,791.6c0-1.7,0.3-3.3,0.9-4.7c0.6-1.4,1.4-2.6,2.4-3.6c1-1,2.3-1.7,3.7-2.3c1.4-0.5,3-0.8,4.6-0.8
		c1.7,0,3.2,0.3,4.6,0.8c1.4,0.5,2.6,1.3,3.7,2.3c1,1,1.8,2.2,2.4,3.6c0.6,1.4,0.9,3,0.9,4.7s-0.3,3.3-0.9,4.7
		c-0.6,1.4-1.4,2.6-2.4,3.6c-1,1-2.3,1.7-3.7,2.3c-1.4,0.5-3,0.8-4.6,0.8c-1.7,0-3.2-0.3-4.6-0.8c-1.4-0.5-2.6-1.3-3.7-2.3
		c-1-1-1.8-2.2-2.4-3.6C760,794.8,759.7,793.3,759.7,791.6z M764.6,791.6c0,1,0.2,1.9,0.5,2.8c0.3,0.8,0.8,1.6,1.3,2.2
		c0.6,0.6,1.3,1.1,2.1,1.4c0.8,0.3,1.7,0.5,2.7,0.5c1,0,1.9-0.2,2.7-0.5c0.8-0.3,1.5-0.8,2.1-1.4c0.6-0.6,1-1.3,1.4-2.2
		c0.3-0.8,0.5-1.8,0.5-2.8c0-1-0.2-1.9-0.5-2.8c-0.3-0.8-0.8-1.6-1.3-2.2c-0.6-0.6-1.3-1.1-2.1-1.4c-0.8-0.3-1.7-0.5-2.7-0.5
		c-1,0-1.9,0.2-2.7,0.5c-0.8,0.3-1.5,0.8-2.1,1.4c-0.6,0.6-1,1.3-1.4,2.2C764.7,789.7,764.6,790.6,764.6,791.6z"/>
	<path class="st20" d="M792.1,755.9l7.2,0l4.9,14l0.1,0l5-14l7.1,0l0,21.5l-4.7,0l0-16.5l-0.1,0l-5.7,16.4l-3.6,0l-5.4-16.5l-0.1,0
		l0,16.5l-4.7,0L792.1,755.9z"/>
	<path class="st20" d="M826.8,755.9l7.2,0l4.9,14l0.1,0l5-14l7.1,0l0,21.5l-4.7,0l0-16.5l-0.1,0l-5.7,16.4l-3.6,0l-5.4-16.5l-0.1,0
		l0,16.5l-4.7,0L826.8,755.9z"/>
	<path class="st20" d="M879.5,769.2c0,1.3-0.2,2.4-0.6,3.5c-0.4,1.1-1,2-1.7,2.8c-0.8,0.8-1.7,1.4-2.8,1.8s-2.4,0.7-3.9,0.7
		c-1.5,0-2.8-0.2-3.9-0.7c-1.1-0.4-2.1-1.1-2.8-1.9c-0.8-0.8-1.3-1.7-1.7-2.8c-0.4-1.1-0.6-2.2-0.6-3.5l0-13.2l4.7,0l0,13
		c0,0.7,0.1,1.3,0.3,1.8c0.2,0.6,0.5,1.1,0.9,1.5c0.4,0.4,0.8,0.7,1.4,1c0.5,0.2,1.1,0.4,1.7,0.4c0.6,0,1.2-0.1,1.7-0.3
		c0.5-0.2,1-0.6,1.4-1c0.4-0.4,0.7-0.9,0.9-1.5c0.2-0.6,0.3-1.2,0.3-1.8l0-13l4.7,0L879.5,769.2z"/>
	<path class="st20" d="M890,756l6.4,0l9.1,14.9l0.1,0l0-14.9l4.7,0l0,21.5l-6.2,0l-9.3-15.3l-0.1,0l0,15.3l-4.7,0L890,756z"/>
	<path class="st20" d="M920.7,756.1l4.7,0l0,21.5l-4.7,0L920.7,756.1z"/>
	<path class="st20" d="M949.8,761.7c-0.5-0.6-1-1-1.7-1.3c-0.7-0.3-1.5-0.5-2.3-0.5c-0.9,0-1.7,0.2-2.5,0.5c-0.8,0.3-1.4,0.8-2,1.4
		c-0.6,0.6-1,1.3-1.3,2.2c-0.3,0.8-0.5,1.8-0.5,2.8c0,1,0.2,1.9,0.5,2.8c0.3,0.8,0.7,1.6,1.3,2.2c0.5,0.6,1.2,1.1,1.9,1.4
		c0.7,0.3,1.5,0.5,2.4,0.5c1,0,1.8-0.2,2.6-0.6c0.7-0.4,1.4-1,1.9-1.7l3.9,2.9c-0.9,1.3-2.1,2.2-3.5,2.8c-1.4,0.6-2.8,0.9-4.3,0.9
		c-1.7,0-3.2-0.3-4.6-0.8c-1.4-0.5-2.6-1.3-3.7-2.3c-1-1-1.8-2.2-2.4-3.6c-0.6-1.4-0.9-3-0.9-4.7s0.3-3.3,0.9-4.7
		c0.6-1.4,1.4-2.6,2.4-3.6c1-1,2.3-1.7,3.7-2.3c1.4-0.5,3-0.8,4.6-0.8c0.6,0,1.2,0.1,1.9,0.2c0.7,0.1,1.3,0.3,1.9,0.5
		c0.6,0.2,1.2,0.6,1.8,1c0.6,0.4,1.1,0.9,1.6,1.5L949.8,761.7z"/>
	<path class="st20" d="M969.6,756.1l3.9,0l9.3,21.5l-5.3,0l-1.8-4.5l-8.3,0l-1.8,4.5l-5.2,0L969.6,756.1z M971.5,762.4l-2.6,6.7
		l5.2,0L971.5,762.4z"/>
	<path class="st20" d="M992.5,760.3l-6.1,0l0-4.2l17,0l0,4.2l-6.1,0l0,17.3l-4.7,0L992.5,760.3z"/>
	<path class="st20" d="M1010.6,766.9c0-1.7,0.3-3.3,0.9-4.7c0.6-1.4,1.4-2.6,2.4-3.6c1-1,2.3-1.7,3.7-2.3c1.4-0.5,3-0.8,4.6-0.8
		c1.7,0,3.2,0.3,4.6,0.8c1.4,0.5,2.6,1.3,3.7,2.3c1,1,1.8,2.2,2.4,3.6c0.6,1.4,0.9,3,0.9,4.7s-0.3,3.3-0.9,4.7
		c-0.6,1.4-1.4,2.6-2.4,3.6c-1,1-2.3,1.7-3.7,2.3c-1.4,0.5-3,0.8-4.6,0.8c-1.7,0-3.2-0.3-4.6-0.8c-1.4-0.5-2.6-1.3-3.7-2.3
		c-1-1-1.8-2.2-2.4-3.6C1010.9,770.2,1010.6,768.6,1010.6,766.9z M1015.5,766.9c0,1,0.2,1.9,0.5,2.8c0.3,0.8,0.8,1.6,1.3,2.2
		c0.6,0.6,1.3,1.1,2.1,1.4c0.8,0.3,1.7,0.5,2.7,0.5c1,0,1.9-0.2,2.7-0.5c0.8-0.3,1.5-0.8,2.1-1.4c0.6-0.6,1-1.3,1.4-2.2
		c0.3-0.8,0.5-1.8,0.5-2.8c0-1-0.2-1.9-0.5-2.8c-0.3-0.8-0.8-1.6-1.3-2.2c-0.6-0.6-1.3-1.1-2.1-1.4c-0.8-0.3-1.7-0.5-2.7-0.5
		c-1,0-1.9,0.2-2.7,0.5c-0.8,0.3-1.5,0.8-2.1,1.4c-0.6,0.6-1,1.3-1.4,2.2C1015.7,765,1015.5,765.9,1015.5,766.9z"/>
	<path class="st20" d="M1066.1,756.2l8.3,0c1.1,0,2.1,0.1,3.1,0.3c1,0.2,1.8,0.6,2.6,1.1c0.7,0.5,1.3,1.2,1.8,2
		c0.4,0.8,0.6,1.9,0.6,3.1c0,1.5-0.4,2.8-1.2,3.9c-0.8,1.1-1.9,1.7-3.5,2l5.4,9.1l-5.7,0l-4.5-8.6l-2.3,0l0,8.6l-4.7,0L1066.1,756.2
		z M1070.8,765.1l2.8,0c0.4,0,0.9,0,1.3,0c0.5,0,0.9-0.1,1.3-0.3s0.7-0.4,1-0.7c0.3-0.3,0.4-0.8,0.4-1.4c0-0.5-0.1-1-0.3-1.3
		c-0.2-0.3-0.5-0.6-0.8-0.7c-0.3-0.2-0.7-0.3-1.2-0.4c-0.4-0.1-0.9-0.1-1.3-0.1l-3.1,0L1070.8,765.1z"/>
</g>
</svg>
