<?xml version="1.0" encoding="utf-8"?>
<!-- Generator: Adobe Illustrator 18.0.0, SVG Export Plug-In . SVG Version: 6.00 Build 0)  -->
<!DOCTYPE svg PUBLIC "-//W3C//DTD SVG 1.1//EN" "http://www.w3.org/Graphics/SVG/1.1/DTD/svg11.dtd">
<svg version="1.1" id="Layer_1" xmlns="http://www.w3.org/2000/svg" xmlns:xlink="http://www.w3.org/1999/xlink" x="0px" y="0px"
	 viewBox="0 0 1900 1250" style="enable-background:new 0 0 1900 1250;" xml:space="preserve">
<style type="text/css">
	.st0{fill:#F4EFEB;}
	.st1{display:none;}
	.st2{fill:#CEBC72;}
	.st3{fill:none;}
	.st4{fill:#4C4C4C;}
	.st5{fill:#7C7C7C;}
	.st6{fill:#999999;}
	.st7{fill:#BB7E6F;}
	.st8{fill:#54868A;}
</style>
<g id="bg">
	<rect class="st0" width="1900" height="1250"/>
</g>
<g id="guides" class="st1">
</g>
<g id="shapes">
	<g>
		<path class="st2" d="M1110.7,980.8L1062.1,840l-55.2-26.9l2.9-6l57.7,28.1l0.4,1.3l46.9,135.8l131.9-45.6l52.9,25.8l96.2-33.3
			l31.4,91l112.9,54.9l0.4,1.3l48.8,141.1c19.4-6.2,123.9-39.9,149.9-48.8l1.3-0.4l1.2,0.6l158.7,77.2l-2.9,6l-157.4-76.6
			c-30.9,10.5-150.6,49.1-151.8,49.4l-3.1,1l-50.4-146l-112.9-55l-30.1-87.3l-92.5,32l-52.9-25.8L1110.7,980.8z"/>
	</g>
	<rect x="-1.3" y="0.8" class="st3" width="1898.8" height="1247.9"/>
	<polygon class="st4" points="604,688.4 516.7,567.8 400.5,651.8 342.3,642.5 263.1,699.9 208.9,625.1 85.2,605.3 -1,485.8 
		-1,497.2 80.6,610.4 81.3,611.5 205.2,631.3 261.6,709.3 344,649.5 402.2,658.8 515.2,577.1 599.4,693.5 600.2,694.6 663.5,704.8 
		664.6,698.2 	"/>
	<polygon class="st4" points="601.9,703.3 507.3,588.4 396.5,679.4 339.2,673.9 337.8,673.7 262.3,735.9 204.5,665.7 203.6,664.6 
		78.9,652.5 -1,555 -1,565.6 74.6,657.8 75.4,658.9 200.3,671 261.4,745.3 339.9,680.6 398.6,686.3 506.4,597.8 597.6,708.7 
		598.5,709.7 662.3,716 662.9,709.4 	"/>
	<polygon class="st4" points="600.7,718.4 501.4,611.9 499.2,609.5 394.2,707.2 336.7,705.2 335.3,705.2 263.8,771.9 201.7,705.4 
		200.8,704.4 75.6,700 -1,617.6 -1,627.4 71.6,705.6 72.5,706.6 197.8,711 261.2,778.9 263.5,781.4 337.8,711.9 396.8,713.9 
		498.8,618.9 596.7,724 597.7,725 661.7,727.3 662,720.6 	"/>
	<polygon class="st4" points="661.8,731.9 600.4,733.5 494.8,633.4 492.4,631.1 393.6,735 336.1,736.7 334.7,736.7 267.4,807.8 
		200.4,744.2 75.1,747.7 -2,674.4 -2,683.6 71.5,753.4 72.5,754.4 197.9,751 267.7,817.2 337.7,743.3 395.2,741.7 396.6,741.6 
		492.6,640.5 597.8,740.2 661.9,738.6 	"/>
	<polygon class="st4" points="662.2,743.2 601.1,748.6 489.5,655.2 486.9,653 394.8,762.9 336.1,768.2 273.4,843.3 202.5,784.1 
		77.8,795.2 -2,728.1 -2,736.8 75.6,802.1 200.5,790.9 274.3,852.7 339.5,774.6 398.1,769.3 487.7,662.4 598.9,755.4 662.8,749.9 	
		"/>
	<path class="st5" d="M690.2,828.2L638.9,862L493,832.2l-28.8,140.5l-48,31.7l-1.2,0.8l-19.5,95.9l-90.5-18.4l-104.7,69.2l-151.4-31
		l-0.7,3.2c-0.2,1-17.7,78.1-28.2,126h7c9.3-42.4,23.8-106.4,27.2-121.4l146.4,29.9l1.4,0.3l104.7-69.2l94.3,19.2l20.3-99.7l48-31.7
		l1.2-0.8l28-136.7L639,868.8l1.4,0.3l53.5-35.3L690.2,828.2z"/>
	<path class="st5" d="M696.6,837.5l-49.1,36.9l-144.2-20.3l-3.3-0.4l-20,142l-45.9,34.7l-1.1,0.8l-13.5,96.9l-91.5-12.8l-100.2,75.6
		L78,1169.7l-3.2-0.4l-0.5,3.4c-0.1,0.7-6.1,37.3-12.3,76.3h6.8c5.1-32,10-62.3,11.6-72l147.9,20.8l1.4,0.1l100.2-75.6l95.3,13.4
		l14.1-100.8l45.9-34.7l1.1-0.8l19.5-138.1l142.2,20l1.4,0.2l51.3-38.6L696.6,837.5z"/>
	<path class="st5" d="M703.5,846.4l-46.7,39.9L511.6,875l-3.3-0.2l-11.2,142.9l-43.7,37.5l-1.1,0.9l-7.5,97.5l-92.1-7.1l-95.3,81.6
		l-150.8-11.8l-3.3-0.2l-0.3,3.4c0,0.4-1.2,11.6-2.9,29.6h6.7c1.1-12,2.1-21.1,2.5-25.6l148.9,11.6l1.4,0.1l95.3-81.6l95.9,7.4
		l7.8-101.4l43.7-37.5l1.1-0.9l10.9-139.1l143.2,11.1l1.4,0.1l48.8-41.6L703.5,846.4z"/>
	<polygon class="st5" points="710.9,854.9 666.8,897.6 517.9,895.2 515.6,1038.6 473.3,1079.7 471.8,1177.5 380.9,1176.1 
		379.5,1176.1 303.2,1250 312.8,1250 382.2,1182.8 478.4,1184.3 479.9,1082.5 522.2,1041.5 524.5,902 668.1,904.3 669.4,904.3 
		715.6,859.7 	"/>
	<polygon class="st5" points="718.9,862.9 677.5,908.3 528.7,915.1 535.3,1058.4 495.6,1101.9 500.2,1199.7 409.4,1203.9 408,1204 
		366,1250 375.1,1250 411.1,1210.5 507.2,1206 502.4,1104.4 542.1,1060.9 535.7,921.5 679.2,914.9 680.6,914.8 723.8,867.5 	"/>
	<polygon class="st5" points="727.3,870.5 688.8,918.2 544.1,933.9 540.7,934.3 556.2,1076.9 519.3,1122.8 529.9,1220.1 
		439.5,1229.9 438.1,1230.3 423.2,1249 431.8,1249 441.6,1236.6 537.3,1226.1 526.2,1124.9 563.1,1078.9 548.1,940.2 690.9,924.7 
		692.3,924.6 732.5,874.7 	"/>
	<polygon class="st5" points="736.2,877.4 700.7,927.5 557.2,952.1 554,952.7 578.2,1094 545,1141 544.2,1142.2 560.8,1238.7 
		502.3,1249 541.5,1249 568.5,1244.2 551.2,1143.9 584.4,1096.8 585.2,1095.6 561.7,958.2 703.2,933.9 704.6,933.6 741.7,881.3 	"/>
	<polygon class="st5" points="745.5,883.8 713.2,936 568.3,970.2 601.2,1109.8 571,1158.8 570.2,1159.9 591.6,1250 598.4,1250 
		577.4,1161.1 607.6,1112.1 608.3,1110.9 576.3,975.2 717.4,941.8 751.2,887.3 	"/>
	<polygon class="st5" points="755.2,889.6 726.2,943.7 586.8,985.9 583.6,986.8 625.1,1124.1 597.3,1176.1 619.7,1250 626.7,1250 
		604.5,1176.8 631.7,1126 632.3,1124.8 591.9,991.3 729.4,949.7 730.7,949.3 761.1,892.8 	"/>
	<polygon class="st5" points="775.6,899.4 753.5,956.7 617.3,1017 675.4,1148.1 654.3,1203.1 675.1,1250 682.4,1250 661.5,1202.9 
		682.2,1149.2 682.6,1147.9 626.1,1020.4 757.4,962.2 758.7,961.7 781.8,901.8 	"/>
	<polygon class="st5" points="765.2,894.8 739.6,950.6 600,1002.5 649.9,1136.9 625.4,1190.5 647.6,1250 654.7,1250 632.6,1190.8 
		657.1,1137.1 608.6,1006.4 744.5,955.9 771.3,897.6 	"/>
	<polygon class="st5" points="786.2,903.3 767.6,961.8 638.4,1029 635.4,1030.6 701.6,1157.8 683.9,1214 702.6,1250 710.2,1250 
		691.1,1213.3 708.8,1157.1 644.5,1033.4 771.9,967.1 773.2,966.5 792.5,905.4 	"/>
	<polygon class="st5" points="797,906.6 782.1,966.1 654.4,1042.9 728.3,1165.8 714.1,1223.2 729.6,1249 737.4,1249 721.3,1222.1 
		735.5,1164.8 663.6,1045.2 786.7,971.2 787.9,970.4 803.5,908.2 	"/>
	<polygon class="st5" points="744.8,1230.3 757.6,1249 765.8,1249 751.9,1228.7 762.6,1170.7 683.4,1055.8 801.7,974.3 802.9,973.5 
		814.6,910.4 808,909.2 796.8,969.5 674.1,1054 755.5,1172.2 	"/>
	<polygon class="st5" points="775.9,1235.3 787.5,1250 796,1250 782.9,1233.3 790,1174.8 703.8,1065.1 816.9,976.4 818,975.5 
		825.7,911.9 819.1,911.1 811.7,972 697.1,1061.9 694.5,1064 783,1176.8 	"/>
	<polygon class="st5" points="807.3,1238.5 817.5,1250 826.5,1250 814.1,1236.1 817.6,1177.3 724.8,1073.1 833.2,976.7 837,912.7 
		830.3,912.3 826.7,973.6 717.9,1070.3 715.4,1072.6 810.8,1179.7 	"/>
	<polygon class="st5" points="838.6,1180.9 838.8,1240.1 847.7,1249 857.1,1249 845.5,1237.3 845.3,1178.2 746.2,1079.9 
		847.5,977.9 848.5,977 848.3,913 841.6,913 841.8,974.3 736.8,1079.9 	"/>
	<polygon class="st5" points="870.4,1239.2 882.7,1250 892.8,1250 876.8,1236 873,1177.2 768.1,1085.3 862.8,977.2 863.7,976.2 
		859.6,912.2 852.9,912.7 856.9,973.9 760.9,1083.4 758.7,1085.9 866.5,1180.4 	"/>
	<polygon class="st5" points="921.9,1174.2 933,1231.8 963.2,1252 975.1,1252 939.1,1227.8 928,1170.1 812.5,1091.9 893.2,973 
		893.9,971.9 881.9,908.9 875.3,910.2 886.9,970.4 803.2,1093.7 	"/>
	<polygon class="st5" points="894.3,1178.2 901.6,1235.3 901.8,1236.8 917.4,1249 928.3,1249 908.1,1233.2 900.8,1176 900.6,1174.6 
		790.2,1089.3 878.1,975.6 878.9,974.5 870.8,910.9 864.2,911.8 871.9,972.6 780.8,1090.5 	"/>
	<polygon class="st5" points="963.6,1224.3 963.9,1225.8 1011.3,1254 1024.5,1254 969.7,1221.4 955.4,1165.6 955,1164.3 
		834.9,1093.2 908.1,969.6 908.8,968.4 892.9,906.3 886.4,907.9 901.7,967.3 827.5,1092.7 825.8,1095.5 949.2,1168.6 	"/>
	<polygon class="st5" points="994.3,1217.5 1055.8,1249 1070.5,1249 999.8,1212.8 981.7,1156.6 857.4,1093.1 923.4,963.9 
		903.7,902.9 897.3,905 916.2,963.3 849.9,1093 848.4,1096 976.2,1161.3 	"/>
	<polygon class="st5" points="1002.5,1152.2 1024.1,1207 1113.9,1246 1112.2,1250 1119.5,1250 1122.7,1242.5 1029.3,1202 
		1007.7,1147.2 879.8,1091.6 937.2,959.8 937.7,958.6 914.2,898.9 908,901.3 930.5,958.4 871,1095 	"/>
	<polygon class="st5" points="1053.3,1195 1145.3,1228.3 1136.7,1252 1143.8,1252 1153.8,1224.3 1058.2,1189.7 1033.2,1136.3 
		902.1,1088.7 951.2,953.7 951.6,952.4 924.5,894.3 918.5,897.1 944.4,952.7 894.7,1089.5 893.5,1092.7 1028.4,1141.6 	"/>
	<polygon class="st6" points="1053.5,1129.4 1081.6,1181.2 1175.5,1208.8 1163.4,1250 1170.3,1250 1183.8,1204.3 1086.2,1175.5 
		1058,1123.8 924.2,1084.4 964.8,946.6 965.2,945.3 934.5,889 928.7,892.2 958,946 915.9,1088.9 	"/>
	<polygon class="st6" points="1077.8,1115.8 1109.1,1165.6 1204.5,1187.5 1189.5,1253 1196.4,1253 1212.5,1182.5 1113.2,1159.8 
		1081.9,1109.9 945.9,1078.8 977.9,938.8 978.3,937.4 944.2,883.1 938.5,886.6 971.1,938.6 937.9,1083.8 	"/>
	<polygon class="st6" points="1101.2,1100.6 1135.5,1148.4 1232.1,1164.1 1217.5,1253 1224.2,1253 1239.7,1158.5 1139.3,1142.2 
		1105,1094.4 967.3,1071.8 990.6,930.1 990.8,928.7 953.4,876.6 948,880.5 983.8,930.4 959.6,1077.3 	"/>
	<polygon class="st6" points="1001.6,1060.5 1144.9,1066 1184,1108.2 1184.9,1109.2 1282.7,1113 1279.1,1205.4 1319.2,1249 
		1328.3,1249 1285.9,1202.9 1289.6,1106.6 1187.9,1102.7 1148.9,1060.4 1148,1059.4 1008.5,1054 1014.2,909.1 970.6,862 
		965.7,866.5 1007.4,911.6 1001.7,1057.1 	"/>
	<polygon class="st6" points="1123.6,1084 1160.8,1129.6 1258.2,1139.4 1249,1229.8 1248.9,1231.4 1263.1,1249 1271.7,1249 
		1255.8,1229.3 1265.5,1133.5 1164.2,1123.3 1127,1077.6 988.2,1063.5 1002.7,920.6 1002.8,919.3 962.2,869.6 957.1,873.8 
		995.9,921.3 980.8,1069.5 	"/>
	<polygon class="st6" points="1307.6,1177.4 1383.6,1250 1393.3,1250 1314.2,1174.5 1312.1,1081.6 1312.1,1078.3 1210.3,1080.7 
		1167.7,1040 1028.2,1043.2 1024.9,898.2 978.5,853.9 973.9,858.8 1018.3,901.1 1021.6,1046.7 1021.7,1050.1 1165.1,1046.7 
		1207.7,1087.4 1305.5,1085.1 	"/>
	<polygon class="st6" points="1334.4,1147.9 1430.4,1228.8 1432.2,1250 1438.9,1250 1436.8,1225.5 1340.9,1144.5 1332.7,1048.7 
		1231.3,1057.4 1186.2,1019.4 1047.2,1031.2 1034.9,886.7 985.9,845.4 981.6,850.5 1028.5,890.1 1041.1,1038.5 1184.1,1026.3 
		1229.1,1064.3 1326.6,1055.9 	"/>
	<polygon class="st7" points="1382.2,1084.2 1487.5,1152.6 1508.1,1250 1514.9,1250 1493.5,1148.5 1388.2,1080.1 1368.3,985.9 
		1268.7,1007.1 1219.3,975 1082.8,1003.9 1052.8,862 999,827 995.4,832.6 1046.8,866.1 1077,1008.5 1077.6,1011.8 1218,982.1 
		1267.4,1014.2 1363.1,993.8 	"/>
	<polygon class="st6" points="1345.8,1025.4 1359.1,1115.4 1359.3,1116.8 1460.1,1191.8 1468.6,1249 1475.3,1249 1466.5,1189.5 
		1466.3,1188 1365.5,1113.1 1352,1021.2 1351.4,1017.9 1250.8,1032.8 1203.5,997.7 1065.4,1018.1 1044.5,876 1044.2,874.6 
		992.7,836.4 988.8,841.8 1038,878.4 1059.3,1022.4 1059.8,1025.7 1201.7,1004.7 1249,1039.8 	"/>
	<g>
		<path class="st2" d="M1601.4,1249c38.5-10,90.9-23.4,110-28.5l50.5,28.5h13.6l-63.2-35.9l-1.3,0.5c-22.1,6.1-99.9,25.4-136.5,35.4
			H1601.4z"/>
		<polygon class="st2" points="1550.3,1249 1557.2,1249 1518.5,1109.1 1518.1,1107.7 1408.8,1045.8 1384,956.2 1383.1,953 
			1285,980.2 1233.8,951.3 1099.3,988.6 1060.9,850.2 1060.6,848.9 1004.7,817.2 1001.4,823 1054.9,853.3 1093.7,993.6 
			1094.6,996.8 1232.9,958.5 1284.1,987.4 1378.4,961.2 1402.7,1048.9 1403.1,1050.2 1512.4,1112.2 		"/>
	</g>
</g>
<g id="white_border">
</g>
<g id="Layer_8">
	<path class="st8" d="M643.9,591.4l-28.6-146.1l-140.7,27.4l-49-32.8l-96,18.8l-17.7-90.6l-104.1-70l-29.5-151.7l-3.2,0.6
		c-1.3,0.2-125.2,21.7-157.2,27.9L-1,162v8.1l17.4,11.8l1.3-0.3c27-5.3,135.2-24.1,155.3-27.6l28.5,146.6l0.3,1.4l104.1,70
		l18.5,94.5l99.8-19.6l49,32.8L610,453.1l27.6,141l0.3,1.4l53.1,35.9l3.7-5.5L643.9,591.4z"/>
	<path class="st4" d="M635.7,604l-37.6-144l-138.8,36.1l-50.9-29.8L313.8,491l-23-88l-0.3-1.4l-108.3-63.4l-38-146.4l-0.8-3.2
		l-3.1,0.7C139.2,189.7,43,212.7-1,223.5v6.9c38-9.6,122.3-29.5,139.7-33.7l37.5,144.6l0.3,1.4l108.2,63.4l24.3,93.1l98.4-25.7
		l50.9,29.8l134.9-35.1l36.3,139l0.3,1.4l55.2,32.5l3.4-5.8L635.7,604z"/>
	<path class="st4" d="M628.2,617.2l-46.4-141.5l-136.3,44.6l-51.4-25.9l-1.3-0.6L300,524.3l-28.8-87.8l-112-56.5l-48-146.9l-3,1
		C107.3,234.3,45,253.2-1,267.6v7c41-12.6,94.6-29.1,108-33.2l46.8,143.3l111.9,56.5l30,91.5l96.6-31.8l51.4,25.9l1.3,0.6
		l132.5-43.3l44.7,136.4l0.4,1.3l57.2,29l3-6L628.2,617.2z"/>
	<path class="st4" d="M621.6,630.8l-55.1-138.4l-133.3,52.9L379,522.1l-90.9,36.3l-34.2-85.8l-115.2-49.5L83,282.5l-1.2-3l-2.9,1.1
		c-0.7,0.3-40.9,15.2-79.9,30v7.1c34-12.8,68.8-25.9,79.2-29.8l55.6,140.2L249,477.6l35.6,89.4l94.5-37.7l54.2,23.2L562.9,501
		L616,634.6l0.5,1.3l58.9,25.4l2.6-6.1L621.6,630.8z"/>
	<path class="st4" d="M615.9,644.8l-62.1-131.7l-1.4-3l-129.7,61.1l-55.5-19.9l-88.5,41.8l-39.4-83.5l-118.1-42.3L56.8,330.4l-1.4-3
		l-2.8,1.3C52,329,28,339.8-1,352.8v7.3c24-10.9,45.6-20.5,53.3-23.9l63.6,135.2l0.5,1.2l118,42.4l41.1,87.1l92-43.5l55.5,19.9
		L549.2,519l61.3,129.9l0.6,1.2l60.3,21.7l2.3-6.3L615.9,644.8z"/>
	<path class="st4" d="M611.1,659.1l-71.7-130.5l-125.7,69l-55.4-16l-1.3-0.4l-85.7,47.2l-44.5-80.9l-120.5-34.9L32,377l-2.8,1.5
		c-0.4,0.2-13.2,6.7-30.2,15.9v7.5c14-7.4,25.3-13.3,30.4-16l72.4,132.2L222.3,553l46.3,84.4l89.1-49.1l56.7,16.4l122.3-67.1
		l69.8,127l61.5,18l1.9-6.4L611.1,659.1z"/>
	<path class="st4" d="M607.1,673.6l-79.7-125.8l-121.1,76.6l-57.6-12.8L266.1,664l-49.4-78L94.3,558.6L11.7,428L9,429.7
		c-0.2,0.1-4,2.4-10,6.1v7.8c4-2.9,8.3-5.1,10.7-6.5l80.5,127.5L212.6,592l51.5,81.3l85.9-54.5l57.6,12.8l117.8-74.5l76.9,121.3
		l0.7,1.2l62.5,14.1l1.5-6.5L607.1,673.6z"/>
	<polygon class="st4" points="663.3,754.5 602.7,763.6 485.5,677.3 482.8,675.3 397.7,790.7 339.4,799.6 281.4,878.4 207.1,823.6 
		83.1,842.5 -2,779.8 -2,788.1 80.2,848.7 81.3,849.6 205.4,830.7 282.9,887.7 343.2,805.8 401.4,796.9 484.2,684.6 600.9,770.6 
		664.3,761.1 	"/>
	<polygon class="st4" points="665.2,765.6 605.2,778.4 482.9,699.5 480.1,697.7 402.3,818.2 346,830.4 344.7,830.7 291.7,912.9 
		214.1,862.9 91.5,889.4 -1,829.7 -1,837.6 89,895.8 90.2,896.5 212.8,870 293.7,922.2 348.8,836.6 405,824.4 406.4,824.1 
		482.1,707 602.7,784.8 603.9,785.6 666.6,772.1 	"/>
	<polygon class="st4" points="667.7,776.6 608.6,793.2 481.7,722 478.7,720.3 408.6,845.4 351.8,861.4 304,946.8 224.7,902.3 
		223.5,901.6 102.7,935.6 -1,877.4 -1,885.1 100.7,942.1 101.9,942.8 222.7,908.8 306.6,955.9 356.3,867.1 413,851.1 481.3,729.4 
		606.5,799.7 607.8,800.4 669.5,783.1 	"/>
	<polygon class="st5" points="670.9,787.5 613,807.6 478.9,743 416.5,872.1 360.9,891.6 318.5,979.7 236.5,940.3 235.3,939.7 
		116.9,981.1 -2,923.8 -2,931.2 115.2,987.8 116.5,988.3 234.9,946.9 321.6,988.7 365.7,897 421.3,877.5 482,751.9 611.3,814.2 
		612.6,814.8 673.1,793.8 	"/>
	<polygon class="st5" points="674.8,798.1 618.2,821.8 480.3,765.5 426.1,898.3 373.1,920.7 371.8,921.2 334.9,1011.8 249.4,977 
		133.8,1025.7 -1,970.7 -1,977.9 132.5,1032.4 133.8,1032.9 249.4,984.2 338.6,1020.5 376.9,926.3 430,903.9 431.2,903.4 484,774.2 
		618.2,829 677.4,804.2 	"/>
	<path class="st5" d="M679.3,808.4l-55,27.2L486.4,789l-3.2-1.1l-45.9,135.9L384.5,950l-31.2,92.7l-87.5-29.5L153.4,1069L7,1019.6
		l-1.1,3.1c-0.1,0.3-2.8,7.6-6.8,19v19.7c5.6-15.5,10-27.9,12-33.4l142.9,48.2l112.4-55.7l91.2,30.7l32.5-96.4l52.8-26.2l44.6-132.2
		l136.1,45.9l1.3,0.4l57.5-28.4L679.3,808.4z"/>
	<path class="st5" d="M684.5,818.5L631.2,849l-143.8-38.8L450,948.7l-51,29.4l-25.4,94.5l-89.2-24l-108.7,62.6l-149.2-40.3l-0.9,3.1
		c-0.2,0.8-14.8,50.8-27.5,94.8v24.1c11.9-41.6,28.9-99.8,33-113.9l145.6,39.3l108.7-62.6l92.9,25l26.4-98.3l51.1-29.4l36.4-134.6
		l138.6,37.4l1.3,0.3l55.6-31.9L684.5,818.5z"/>
</g>
<g id="Layer_6" class="st1">
</g>
<g id="Layer_7">
</g>
</svg>
